<?xml version="1.0" standalone="no"?>
<!DOCTYPE svg PUBLIC "-//W3C//DTD SVG 1.1//EN" "http://www.w3.org/Graphics/SVG/1.1/DTD/svg11.dtd" >
<svg>
<metadata>
Created by FontForge 20090914 at Sat Jun 15 17:14:24 2013
 By www-data
&#194;&#169;Dirt2.com. 2009. All Rights Reserved
</metadata>
<defs>
<font id="StarAvenue" horiz-adv-x="1270" >
  <font-face 
    font-family="Star Avenue"
    font-weight="400"
    font-stretch="normal"
    units-per-em="2048"
    panose-1="2 0 5 0 0 0 0 0 0 0"
    ascent="1638"
    descent="-410"
    x-height="1170"
    cap-height="1484"
    bbox="-883 -900 2157 2023"
    underline-thickness="150"
    underline-position="-142"
    unicode-range="U+0020-U+02DC"
  />
<missing-glyph horiz-adv-x="100" 
 />
    <glyph glyph-name=".notdef" horiz-adv-x="100" 
 />
    <glyph glyph-name="space" unicode=" " horiz-adv-x="603" 
 />
    <glyph glyph-name="space" unicode="&#xa0;" horiz-adv-x="603" 
 />
    <glyph glyph-name="exclam" unicode="!" horiz-adv-x="333" 
d="M50 1756h233v-1405h-233v1405zM168 233c55.333 0 92.668 -30.667 112.001 -92l3 -26c0 -54 -29 -91.667 -87 -113l-23 -2h-10c-52.667 0 -89.334 29 -110.001 87l-3 23v8c0 54 28 90.667 84 110z" />
    <glyph glyph-name="quotedbl" unicode="&#x22;" horiz-adv-x="691" 
d="M60 1756h233v-392h-233v392zM393 1756h233v-392h-233v392z" />
    <glyph glyph-name="numbersign" unicode="#" horiz-adv-x="1232" 
d="M444 1424l228 -52l-46 -209h108c4 0 11.667 31.333 23 94l38 167l228 -52l-46 -207l2 -2h203v-233h-259l-23 -118h205v-233h-259l-59 -259c-146.667 30.667 -221.667 48 -225 52l44 207h-111l-58 -259l-228 49l46 210h-205v233h259l25 118h-205v233h256zM572 930
l-25 -118h112l26 118h-113z" />
    <glyph glyph-name="dollar" unicode="$" horiz-adv-x="1505" 
d="M636 1794l233.002 0.000976562v-118h469v-233h-469v-1172h110c84 0 153.333 31.333 208 94c23.333 43.333 35 88.666 35 135.999c0 66.667 -24.667 129 -74 187c-41.333 34 -90 51 -146 51h-15v233h23c150 0 270.333 -63 361 -189c56 -92 84 -186.667 84 -284
c0 -195.333 -89.333 -335.333 -268 -420c-72.667 -27.333 -142 -41 -208 -41h-110v-118h-233v118h-468v233h468v1172h-112c-108.667 0 -180.334 -41.667 -215.001 -125c-17.333 -48 -26 -86.333 -26 -115c0 -106 47.667 -176 143 -210c21.333 -8.66699 52 -15.667 92 -21
v-233c-84 0 -173.333 26.667 -268 80c-133.333 88 -200 217.667 -200 389c0 109.333 37.667 215 113 317c89.333 100.667 207.666 151 354.999 151h118v118z" />
    <glyph glyph-name="percent" unicode="%" horiz-adv-x="1424" 
d="M84 196l1063 1496l184 -128l-1064 -1496zM296 1597c60.667 0 113.002 -26.666 157.002 -79.999c29.333 -42 44 -85.333 44 -130v-189c0 -55.333 -21.333 -106 -64 -152c-40.667 -38 -86 -57 -136 -57h-4c-58.667 0 -109.334 25.333 -152.001 76
c-32.667 39.333 -49 89.666 -49 150.999v152c0 74.667 22.667 132.667 68 174c39.333 36.667 84.666 55 135.999 55zM1103 751.001c60.667 0 113.002 -26.666 157.002 -79.999c29.333 -42 44 -85.333 44 -130v-189c0 -55.333 -21.333 -106 -64 -152
c-40.667 -38 -86 -57 -136 -57h-4c-58.667 0 -109.334 25.333 -152.001 76c-32.667 39.333 -49 89.666 -49 150.999v152c0 74.667 22.667 132.667 68 174c39.333 36.667 84.666 55 135.999 55z" />
    <glyph glyph-name="ampersand" unicode="&#x26;" horiz-adv-x="100" 
 />
    <glyph glyph-name="quotesingle" unicode="'" horiz-adv-x="350" 
d="M60 1756h233v-392h-233v392z" />
    <glyph glyph-name="parenleft" unicode="(" horiz-adv-x="755" 
d="M567 1994l138.002 -187.001c-82.667 -76.667 -142.334 -141.667 -179.001 -195c-162 -231.333 -243 -487.333 -243 -768c0 -319.333 105 -604.333 315 -855c41.333 -43.333 77 -78.333 107 -105l-140 -184c-62 48 -127 113.667 -195 197
c-94.667 130.667 -161.334 244.334 -200.001 341.001c-80 196 -120 399 -120 609c0 374 120.333 706 361 996c74.667 82.667 126.667 133 156 151z" />
    <glyph glyph-name="parenright" unicode=")" horiz-adv-x="755" 
d="M344 1843c240.667 -290 361 -621.999 361 -995.999c0 -210 -40 -413 -120 -609c-38 -96.667 -104.667 -210.334 -200 -341.001c-68 -83.333 -132.667 -149 -194 -197l-141 184c30 26.667 66 61.667 108 105c209.333 250.667 314 535.667 314 855
c0 280.667 -81 536.667 -243 768c-36 53.333 -95.667 118.333 -179 195l138 187c30 -18 82 -68.333 156 -151z" />
    <glyph glyph-name="asterisk" unicode="*" horiz-adv-x="735" 
d="M216 1749l151 -148l151 148l167 -166l-151 -151l151 -151l-167 -164l-151 148l-151 -148l-166 166l151 151l-151 151z" />
    <glyph glyph-name="plus" unicode="+" horiz-adv-x="1241" 
d="M126 983h1002v-224h-1002v224zM525 373v1002h224v-1002h-224z" />
    <glyph glyph-name="comma" unicode="," horiz-adv-x="341" 
d="M115 133l134 36l60 -226l-134 -35zM149 243c55.333 0 92.668 -30.667 112.001 -92l3 -26c0 -54 -29 -91.667 -87 -113l-23 -2h-10c-52.667 0 -89.334 29 -110.001 87l-3 23v8c0 53.333 28 90 84 110z" />
    <glyph glyph-name="hyphen" unicode="-" horiz-adv-x="1198" 
d="M105 702h1002v-224h-1002v224z" />
    <glyph glyph-name="hyphen" unicode="&#xad;" horiz-adv-x="1198" 
d="M105 702h1002v-224h-1002v224z" />
    <glyph glyph-name="period" unicode="." horiz-adv-x="332" 
d="M176 238c55.333 0 92.668 -30.667 112.001 -92l3 -26c0 -54 -29 -91.667 -87 -113l-23 -2h-10c-52.667 0 -89.334 29 -110.001 87l-3 23v8c0 53.333 28 90 84 110z" />
    <glyph glyph-name="slash" unicode="/" horiz-adv-x="830" 
d="M62 -20l498 1858l216 -58l-498 -1858z" />
    <glyph glyph-name="zero" unicode="0" 
d="M639 1756c174.667 0 325.666 -76.666 452.999 -229.999c85.333 -122 128 -247.667 128 -377v-545c0 -160.667 -62.333 -307.334 -187 -440.001c-117.333 -109.333 -248 -164 -392 -164h-10c-170 0 -316.667 72.667 -440 218c-94 114 -141 259.667 -141 437v438
c0 216 65.667 384 197 504c112.667 106 243.334 159 392.001 159zM282.999 1098l0.000976562 -443c0 -192.667 76 -325 228 -397c41.333 -16.667 81.333 -25 120 -25h3c142.667 0 251 77.667 325 233c18.667 54 28 102.667 28 146v532c0 122.667 -53.667 228.667 -161 318
c-64 40.667 -127.333 61 -190 61c-122.667 0 -223.334 -63 -302.001 -189c-34 -62 -51 -140.667 -51 -236z" />
    <glyph glyph-name="one" unicode="1" horiz-adv-x="333" 
d="M50 1756h233v-1756h-233v1756z" />
    <glyph glyph-name="two" unicode="2" 
d="M50 1756l673 0.000976562c180 0 318.333 -63 415 -189c54.667 -77.333 82 -171.333 82 -282c0 -220.667 -116 -379.334 -348 -476.001l-274 -120c-68 -34 -128.667 -79.333 -182 -136c-55.333 -62 -93 -139 -113 -231l-15 -89h932v-233h-1170v133
c0 388 168 651.667 504 791c30 15.333 108.667 49.333 236 102c104 50 165.333 106.333 184 169c8.66699 34.667 13 65.667 13 93c0 110 -47.667 182.333 -143 217c-42 12 -79.667 18 -113 18h-681v233z" />
    <glyph glyph-name="three" unicode="3" horiz-adv-x="1152" 
d="M50 1756l560.998 0.00195312c190 0 333.333 -77.667 430 -233c40.667 -76 61 -164.667 61 -266c0 -158.667 -52 -286 -156 -382c104 -87.333 156 -215.333 156 -384c0 -228.667 -105 -383.667 -315 -465c-60 -17.333 -112 -26 -156 -26h-581v233h573
c84.667 0 152.334 32.333 203.001 97c28.667 41.333 43 97.666 43 168.999c0 128 -53 210.667 -159 248c-34 8.66699 -60.333 13 -79 13h-466v236h471c68.667 0 129.334 28 182.001 84c34 45.333 51 105 51 179c0 121.333 -46 201.666 -138 240.999
c-39.333 15.333 -79.333 23 -120 23h-561v233z" />
    <glyph glyph-name="four" unicode="4" horiz-adv-x="1152" 
d="M50 1756h233v-704h586v704h233v-1756h-233v819h-819v937z" />
    <glyph glyph-name="five" unicode="5" horiz-adv-x="919" 
d="M50 1756h819.002v-233h-581l-5 -5v-358c111.333 -10.667 226.666 -51 345.999 -121c160 -112 240 -262 240 -450c0 -108 -37.333 -219 -112 -333c-128.667 -170.667 -324.334 -256 -587.001 -256h-120v233h113c231.333 0 379.666 78.333 444.999 235
c18.667 56.667 28 96 28 118c0 154.667 -87.667 259.667 -263 315c-77.333 24 -151.666 36 -222.999 36h-100v819z" />
    <glyph glyph-name="six" unicode="6" horiz-adv-x="1275" 
d="M1107 1756l-0.000976562 -233c-363.333 0 -609 -136.333 -737 -409l-3 -11c84.667 44.667 175.334 67 272.001 67c184 0 339.333 -76 466 -228c80 -112 120 -231.333 120 -358c0 -186.667 -80.333 -344.667 -241 -474c-106.667 -73.333 -221 -110 -343 -110h-5
c-189.333 0 -348 82 -476 246c-71.333 100.667 -107 226 -107 376l-3 59c0 322.667 95.667 587 287 793c188 188 444.667 282 770 282zM287.999 591v-20.002c0 -98.667 45.333 -186.667 136 -264c65.333 -49.333 137 -74 215 -74c138.667 0 246 69 322 207
c20.667 56.667 31 105.334 31 146.001c0 108.667 -48.667 203.334 -146 284.001c-66.667 44.667 -136.667 67 -210 67c-124 0 -225.333 -59.667 -304 -179c-29.333 -57.333 -44 -113 -44 -167z" />
    <glyph glyph-name="seven" unicode="7" 
d="M50 1756h1170c-186 -242.667 -336.333 -467 -451 -673c-245.333 -442 -368 -802.333 -368 -1081v-2h-233v2c0 290.667 108.333 645 325 1063c81.333 152.667 171 304.667 269 456v2h-712v233z" />
    <glyph glyph-name="eight" unicode="8" horiz-adv-x="1152" 
d="M577 1756c130.667 0 240.002 -55.3301 328.002 -165.997c52.667 -74 79 -151.667 79 -233v-21c0 -130 -60.333 -241 -181 -333v-2c108 -52 189 -131.333 243 -238c37.333 -72.667 56 -151.334 56 -236.001v-2c0 -139.333 -50.333 -262.333 -151 -369
c-108 -104 -231.667 -156 -371 -156h-8c-168.667 0 -310.334 72.667 -425.001 218c-64.667 96.667 -97 194.667 -97 294v28c0 141.333 58 267.666 174 378.999c55.333 45.333 97.333 72.666 126 81.999v5c-72.667 43.333 -128.334 116 -167.001 218
c-11.333 49.333 -17.333 90 -18 122c0 140 64 256.333 192 349c72 40.667 145.333 61 220 61zM398.002 1346c0 -69.333 36.667 -123.667 110 -163c24 -8.66699 47 -13 69 -13c68 0 120.333 33.333 157 100c11.333 23.333 17 46.333 17 69v7c0 78 -40 133.667 -120 167
c-21.333 6.66699 -41 10 -59 10c-53.333 0 -100.333 -25.667 -141 -77c-20 -28 -30 -60.333 -30 -97zM283.002 532.002l-0.000976562 -11.998c0 -101.333 49.333 -184.333 148 -249c47.333 -25.333 94.333 -38 141 -38c122.667 0 214 59.667 274 179
c15.333 39.333 23 77 23 113v2c0 107.333 -52 193.666 -156 258.999c-47.333 22 -91.666 33 -132.999 33h-10c-102 0 -186.667 -51 -254 -153c-22 -48.667 -33 -93.334 -33 -134.001z" />
    <glyph glyph-name="nine" unicode="9" horiz-adv-x="1272" 
d="M636 1756c176.667 0 327.666 -72.666 452.999 -217.999c52.667 -67.333 87 -132 103 -194c20 -50.667 30 -141 30 -271c0 -292 -79.333 -538 -238 -738c-188 -223.333 -457.667 -335 -809 -335h-10v233h3c361.333 0 605.333 134.667 732 404l5 13h-3
c-83.333 -42.667 -168.666 -64 -255.999 -64h-30c-154.667 0 -294.667 65 -420 195c-97.333 118 -146 240 -146 366v46c0 123.333 46 242.666 138 357.999c124 136.667 273.333 205 448 205zM282.999 1185l-0.00195312 -27.999c0 -100.667 46 -189.334 138 -266.001
c64.667 -48 134 -72 208 -72h10c112.667 0 207.334 50.333 284.001 151c42.667 65.333 64 132 64 200c0 116 -52 213.333 -156 292c-64 40.667 -129.667 61 -197 61c-127.333 0 -230.666 -61.333 -309.999 -184c-27.333 -56.667 -41 -108 -41 -154z" />
    <glyph glyph-name="colon" unicode=":" horiz-adv-x="376" 
d="M199 496c55.333 0 92.668 -30.667 112.001 -92l3 -26c0 -54 -29 -91.667 -87 -113l-23 -2h-10c-52.667 0 -89.334 29 -110.001 87l-3 23v8c0 53.333 28 90 84 110zM199.002 949c55.333 0 92.668 -30.667 112.001 -92l3 -26c0 -54 -29 -91.667 -87 -113l-23 -2h-10
c-52.667 0 -89.334 29 -110.001 87l-3 23v8c0 53.333 28 90 84 110z" />
    <glyph glyph-name="semicolon" unicode=";" horiz-adv-x="399" 
d="M199 949c55.333 0 92.668 -30.667 112.001 -92l3 -26c0 -54 -29 -91.667 -87 -113l-23 -2h-10c-52.667 0 -89.334 29 -110.001 87l-3 23v8c0 53.333 28 90 84 110zM163.002 388l134 36l60 -226l-134 -35zM197.002 498c55.333 0 92.668 -30.667 112.001 -92l3 -26
c0 -54 -29 -91.667 -87 -113l-23 -2h-10c-52.667 0 -89.334 29 -110.001 87l-3 23v8c0 53.333 28 90 84 110z" />
    <glyph glyph-name="semicolon" unicode="&#x37e;" horiz-adv-x="399" 
d="M199 949c55.333 0 92.668 -30.667 112.001 -92l3 -26c0 -54 -29 -91.667 -87 -113l-23 -2h-10c-52.667 0 -89.334 29 -110.001 87l-3 23v8c0 53.333 28 90 84 110zM163.002 388l134 36l60 -226l-134 -35zM197.002 498c55.333 0 92.668 -30.667 112.001 -92l3 -26
c0 -54 -29 -91.667 -87 -113l-23 -2h-10c-52.667 0 -89.334 29 -110.001 87l-3 23v8c0 53.333 28 90 84 110z" />
    <glyph glyph-name="less" unicode="&#x3c;" horiz-adv-x="883" 
d="M614 1354l164 -149v-3l-381 -428l383 -431l-169 -150l-515 583l484 542z" />
    <glyph glyph-name="equal" unicode="=" horiz-adv-x="1224" 
d="M105 1166h1002v-224h-1002v224zM105 716h1002v-222h-1002v222z" />
    <glyph glyph-name="greater" unicode="&#x3e;" horiz-adv-x="883" 
d="M296 1318l484 -542l-515 -583l-169 150l383 431l-381 428v3l164 149z" />
    <glyph glyph-name="question" unicode="?" horiz-adv-x="1037" 
d="M50 1756h433c204 0 352.333 -75 445 -225c39.333 -70.667 59 -153.667 59 -249c0 -186.667 -80.333 -322.334 -241 -407.001c-76 -35.333 -143.333 -53 -202 -53c-95.333 0 -143 -41 -143 -123v-348h-233v345c0 160.667 71.667 270.667 215 330
c29.333 14 90 24.333 182 31c72 18 123 48 153 90c24 40.667 36 88.334 36 143.001c0 100.667 -41 169 -123 205c-40.667 18.667 -87.667 28 -141 28h-440v233zM286 233c54 0 91.333 -30 112 -90l3 -25v-8c0 -50 -29 -86 -87 -108l-26 -2h-10c-51.333 0 -87.333 30 -108 90
l-2 30c0 53.333 30.667 90 92 110z" />
    <glyph glyph-name="at" unicode="@" horiz-adv-x="1856" 
d="M926 1756c228 0 431.001 -81 609.001 -243c180.667 -179.333 271 -395.333 271 -648c0 -167.333 -23 -287.666 -69 -360.999c-63.333 -102 -158 -153 -284 -153c-127.333 0 -223 64 -287 192h-2c-71.333 -50 -148.333 -75 -231 -75h-10
c-146.667 0 -264.334 69.333 -353.001 208c-34.667 65.333 -52 132.666 -52 201.999c0 135.333 57.333 246.333 172 333c73.333 51.333 152.666 77 237.999 77c140.667 0 256.667 -64 348 -192c41.333 -72 62 -145.667 62 -221l-5 -56h5v-2
c10 -135.333 40.667 -212.333 92 -231l28 -2c40.667 0 68 16 82 48c22 42 33 119 33 231c0 231.333 -97.333 415.666 -292 552.999c-112.667 71.333 -230.334 107 -353.001 107c-189.333 0 -355 -77.667 -497 -233c-49.333 -66 -84.333 -125.667 -105 -179
c-28.667 -79.333 -43 -157 -43 -233c0 -205.333 87 -378.666 261 -519.999c120.667 -83.333 247 -125 379 -125h5v-233h-13c-197.333 -0 -380.666 67.333 -549.999 202c-91.333 85.333 -141 139 -149 161c-110.667 154 -166 324 -166 510v8c0 260 105 484.333 315 673
c98.667 74 181.334 121.667 248.001 143c104 39.333 208.333 59 313 59zM751.001 875c0 -70.667 36.999 -124.333 110.999 -161c18.667 -8.66699 40.667 -13 66 -13h5c67.333 0 120.333 36.667 159 110c8.66699 28 13 51.333 13 70c0 68 -37.667 121.667 -113 161
c-21.333 6.66699 -42.666 11 -63.999 13c-69.333 0 -124 -36.667 -164 -110c-8.66699 -24 -13 -47.333 -13 -70z" />
    <glyph glyph-name="A" unicode="A" 
d="M636 1170c125.333 0 241.333 -38.333 348 -115h3v115h233v-1170h-233v115c-108.667 -76.667 -219.667 -115 -333 -115h-31c-175.333 0 -327 76.667 -455 230c-78.667 110.667 -118 228.667 -118 354c0 194 83.667 354.333 251 481c103.333 70 215 105 335 105zM283 586
c0 -130.667 62.332 -234.667 186.999 -312c52.667 -27.333 106.334 -41 161.001 -41h15c106 0 198.333 49.333 277 148c42.667 64.667 64 128.667 64 192v16c0 122 -58 221.667 -174 299c-59.333 32.667 -119 49 -179 49c-112 0 -206.667 -49.333 -284 -148
c-44.667 -66 -67 -133.667 -67 -203z" />
    <glyph glyph-name="B" unicode="B" 
d="M50 1756h233.001v-701h3c105.333 76.667 223.666 115 354.999 115c180 0 333 -76 459 -228c80 -108 120 -223.333 120 -346v-23c0 -177.333 -76.667 -329 -230 -455c-108 -78.667 -224.333 -118 -349 -118h-7c-127.333 -0 -243.333 38.333 -348 115h-3v-115h-233v1756z
M283.001 584c0 -126 60.667 -228.668 182 -308.001c56.667 -28.667 113.667 -43 171 -43c114 0 208.667 48.667 284 146c44.667 64 67 128.667 67 194v23c0 98.667 -44.333 186.667 -133 264c-64.667 51.333 -139 77 -223 77c-117.333 0 -216.333 -56.333 -297 -169
c-34 -63.333 -51 -124.666 -51 -183.999z" />
    <glyph glyph-name="C" unicode="C" horiz-adv-x="1168" 
d="M639 1170c187.333 0 345.001 -81 473.001 -243l6 -10c-122.667 -92.667 -186 -139 -190 -139c-74 106 -173 159 -297 159c-118 0 -217 -56.333 -297 -169c-34 -62.667 -51 -124 -51 -184c0 -126 60.667 -228.333 182 -307c56.667 -29.333 113.667 -44 171 -44
c118 0 216.333 53 295 159l187 -139c-11.333 -24 -49 -64.667 -113 -122c-110 -87.333 -231.333 -131 -364 -131h-7c-183.333 0 -338 76 -464 228c-80 110 -120 229.333 -120 358c0 164.667 64 309 192 433c115.333 100.667 247.666 151 396.999 151z" />
    <glyph glyph-name="D" unicode="D" 
d="M987 1756h233v-1756h-233v115c-108.667 -76.667 -224 -115 -346 -115h-12c-188.667 0 -347.667 83.667 -477 251c-68 105.333 -102 217 -102 335c0 192 83.667 352.333 251 481c104 68.667 217.333 103 340 103s237 -38.333 343 -115h3v701zM283 584
c0 -124 57.999 -224.668 173.999 -302.001c54.667 -32.667 116 -49 184 -49c116 0 212.667 53.667 290 161c37.333 60.667 56 121.334 56 182.001v18c0 109.333 -51.333 203 -154 281c-61.333 41.333 -128.666 62 -201.999 62c-114 0 -210.333 -53 -289 -159
c-39.333 -62 -59 -126.667 -59 -194z" />
    <glyph glyph-name="E" unicode="E" horiz-adv-x="1272" 
d="M639 1170c172 0 320.332 -68.999 444.999 -206.999c92 -116 138 -241.667 138 -377c-1.33301 -44 -5.33301 -83 -12 -117h-904c28.667 -86 86 -152 172 -198c50.667 -25.333 103.334 -38 158.001 -38c92 0 175 34 249 102l163 -163v-3
c-118 -112.667 -254.333 -169 -409 -169h-5c-174 0 -322.667 69 -446 207c-92 115.333 -138 241 -138 377c0 173.333 69 322.666 207 447.999c112 92 239.333 138 382 138zM305.999 701.001h660c-26 78 -78.667 142 -158 192c-59.333 29.333 -117.333 44 -174 44
c-124 0 -225.667 -59.667 -305 -179z" />
    <glyph glyph-name="F" unicode="F" horiz-adv-x="874" 
d="M802 1756l15 0.000976562v-233h-15c-120 0 -196 -41.667 -228 -125c-16.667 -44 -25 -84.333 -25 -121v-107h260v-233h-260v-937h-233v937h-251v233h251v107c0 149.333 54.667 275.666 164 378.999c42 32 86.333 56.667 133 74c56 17.333 119 26 189 26z" />
    <glyph glyph-name="G" unicode="G" 
d="M634 1166c126.667 0 243.334 -38.334 350.001 -115.001h3v115h233v-1254c0 -223.333 -79.333 -396.666 -238 -519.999c-100.667 -66.667 -216.667 -100 -348 -100c-258.667 0 -438 117 -538 351c-30.667 85.333 -46 160.333 -46 225v10h233v-2c0 -82 29 -164 87 -246
c64 -70 152.667 -105 266 -105c158 0 264.667 69 320 207c20.667 59.333 31 118.333 31 177v202h-3c-105.333 -76.667 -221.333 -115 -348 -115h-7c-190.667 0 -350.334 84.333 -479.001 253c-66.667 106 -100 209.333 -100 310v44c0 132.667 52 259 156 379
c121.333 122.667 264 184 428 184zM283 594.999l-0.000976562 -28.001c0 -98 45.333 -186 136 -264c65.333 -49.333 137 -74 215 -74c138.667 0 246 69 322 207c20.667 56.667 31 105.334 31 146.001c0 100.667 -41.667 189.667 -125 267c-68.667 56 -144.667 84 -228 84
c-129.333 0 -232.666 -61.333 -309.999 -184c-27.333 -56.667 -41 -108 -41 -154z" />
    <glyph glyph-name="H" unicode="H" 
d="M50 1756h233.001v-701h3c105.333 76.667 223.666 115 354.999 115c176.667 0 329.667 -75 459 -225c80 -112 120 -228.333 120 -349v-596h-233v589c0 120 -55.333 218 -166 294c-56.667 36 -120 54 -190 54c-110 0 -203.667 -49.667 -281 -149
c-44.667 -60 -67 -134 -67 -222v-566h-233v1756z" />
    <glyph glyph-name="I" unicode="I" horiz-adv-x="333" 
d="M50 1170h233v-1170h-233v1170zM168 1484c55.333 0 92.668 -30.667 112.001 -92l3 -26c0 -54 -29 -91.667 -87 -113l-23 -2h-10c-52.667 0 -89.334 29 -110.001 87l-3 23v8c0 53.333 28 90 84 110z" />
    <glyph glyph-name="J" unicode="J" horiz-adv-x="337" 
d="M54 1164h233.001v-1272c0 -174 -59 -324.333 -177 -451c-108.667 -100.667 -244.334 -151 -407.001 -151c-261.333 0 -442 118.667 -542 356c-29.333 87.333 -44 164 -44 230h233c0 -86 30.667 -170.333 92 -253c63.333 -66.667 150.333 -100 261 -100
c166.667 0 276 76 328 228c15.333 53.333 23 101 23 143v1270zM172.001 1478c55.333 0 92.668 -30.667 112.001 -92l3 -26c0 -54 -29 -91.667 -87 -113l-23 -2h-10c-52.667 0 -89.334 29 -110.001 87l-3 23v8c0 53.333 28 90 84 110z" />
    <glyph glyph-name="K" unicode="K" horiz-adv-x="1196" 
d="M50 1756h233v-1011h3l501 425h359v-3l-121 -100l-565 -483l683 -584h-358l-502 425v-425h-233v1756z" />
    <glyph glyph-name="L" unicode="L" horiz-adv-x="333" 
d="M50 1756h233v-1756h-233v1756z" />
    <glyph glyph-name="M" unicode="M" horiz-adv-x="1738" 
d="M50 1170l232.998 -0.000976562v-61h3c72.667 40.667 150 61 232 61c135.333 0 252.333 -53 351 -159c96 106 214.667 159 356 159c128.667 0 242.334 -50.333 341.001 -151c81.333 -92 122 -199.667 122 -323v-696h-233v696c0 108 -54.333 185 -163 231
c-30 6.66699 -54 10 -72 10c-95.333 0 -168 -48.667 -218 -146c-12 -31.333 -18 -70.666 -18 -117.999v-673h-233v709c0 85.333 -45 154.666 -135 207.999c-37.333 13.333 -71.666 20 -102.999 20c-86 0 -156 -45.333 -210 -136c-13.333 -37.333 -20 -68.666 -20 -93.999
v-707h-233v1170z" />
    <glyph glyph-name="N" unicode="N" 
d="M50 1170h233.001v-102h3c98 68 214 102 348 102c260 0 440.667 -117 542 -351c29.333 -76.667 44 -151.667 44 -225v-594h-233v586c0 94 -30 177 -90 249c-62.667 68 -150.334 102 -263.001 102c-160 0 -267.667 -69 -323 -207c-18.667 -48.667 -28 -99 -28 -151v-579
h-233v1170z" />
    <glyph glyph-name="O" unicode="O" horiz-adv-x="1272" 
d="M641 1170c153.333 0 290 -57.333 410 -172c114 -120.667 171 -258.667 171 -414c0 -162.667 -63 -306 -189 -430c-116 -102.667 -247.333 -154 -394 -154h-5c-174 0 -322.667 69 -446 207c-92 115.333 -138 241 -138 377c0 118 35 229.667 105 335
c125.333 167.333 287.333 251 486 251zM286 604l-0.00195312 -14.999l-3 -3l3 -2v-16c0 -94.667 45 -182.334 135 -263.001c68.667 -48 140.334 -72 215.001 -72c115.333 0 211 49.333 287 148c44.667 66 67 133.667 67 203c0 121.333 -56.333 222 -169 302
c-61.333 34 -124.666 51 -189.999 51c-116.667 0 -214 -54.667 -292 -164c-35.333 -60 -53 -116.333 -53 -169z" />
    <glyph glyph-name="P" unicode="P" 
d="M50 1174h232.999v-115h5c108 76.667 223.333 115 346 115c182.667 0 337 -75 463 -225c82 -110.667 123 -225 123 -343v-36c0 -154.667 -65 -294.667 -195 -420c-118 -97.333 -240 -146 -366 -146h-46c-109.333 0 -217.666 37.667 -324.999 113h-5v-817h-233v1874z
M282.999 590c0 -130.667 61.332 -234.668 183.999 -312.001c56.667 -27.333 108 -41 154 -41h31c96.667 0 185.334 46 266.001 138c46 68 69 137.333 69 208v10c0 112.667 -50.333 207.334 -151 284.001c-65.333 42.667 -132 64 -200 64c-112.667 0 -208 -49.333 -286 -148
c-44.667 -66 -67 -133.667 -67 -203z" />
    <glyph glyph-name="Q" unicode="Q" horiz-adv-x="1274" 
d="M634 1174c124.667 0 242.334 -39.332 353.001 -117.999v118h233v-1283c0 -96.667 32.333 -184.334 97 -263.001c59.333 -63.333 144.666 -95 255.999 -95c156.667 0 261.667 65 315 195c17.333 36.667 29.333 88.667 36 156h233c0 -120 -39.333 -242 -118 -366
c-110.667 -145.333 -266 -218 -466 -218h-5c-265.333 0 -446.333 123.667 -543 371c-25.333 78 -38 149.667 -38 215v233c-110.667 -76.667 -220.667 -115 -330 -115h-46c-126 0 -248 48.667 -366 146c-59.333 57.333 -100.333 108.666 -123 153.999
c-48 91.333 -72 180 -72 266v28c0 160.667 64 302.334 192 425.001c117.333 100.667 248 151 392 151zM283 593.001l-0.000976562 -10.001c0 -116 53 -212.667 159 -290c60 -37.333 118.667 -56 176 -56h31c97.333 0 184.333 44.333 261 133
c51.333 66.667 77 139.334 77 218.001c0 123.333 -56.333 223 -169 299c-61.333 36 -122.666 54 -183.999 54c-114.667 0 -213 -53 -295 -159c-37.333 -63.333 -56 -126.333 -56 -189z" />
    <glyph glyph-name="R" unicode="R" horiz-adv-x="801" 
d="M50 1170h233v-133h3c124 88.667 279 133 465 133v-233c-225.333 0 -372 -78.667 -440 -236c-18.667 -46 -28 -88.667 -28 -128v-573h-233v1170z" />
    <glyph glyph-name="S" unicode="S" horiz-adv-x="1198" 
d="M453 1170h1016v-233h-1016c-63.333 0 -102.666 -10.333 -117.999 -31c-22 -31.333 -33 -62 -33 -92c0 -52 24 -87 72 -105l43 -8h313c189.333 0 313 -72.333 371 -217c15.333 -46 23 -91.333 23 -136c0 -144 -64 -248 -192 -312c-52 -24 -100.667 -36 -146 -36h-1112v233
h1099c54 0 90.667 23 110 69l8 49c0 78.667 -47.667 118 -143 118h-338c-88.667 0 -170.667 34 -246 102c-63.333 66.667 -95 148.667 -95 246c0 88 30.667 169.667 92 245c60.667 72 158 108 292 108z" />
    <glyph glyph-name="T" unicode="T" horiz-adv-x="420" 
d="M109 1761h233v-591h640v-233h-640v-937h-233v937h-661v233h661v591z" />
    <glyph glyph-name="U" unicode="U" horiz-adv-x="1272" 
d="M50 1170h233v-410c1.33301 -253.333 71.333 -419.666 210 -498.999c44.667 -18.667 86.334 -28 125.001 -28h16c82 0 161.333 35 238 105c51.333 57.333 84.666 124 99.999 200c12 43.333 18 123.333 18 240v392h232v-376c0 -196 -17.667 -333.667 -53 -413
c-21.333 -54.667 -51.333 -108.334 -90 -161.001c-73.333 -96 -178.333 -163.333 -315 -202c-40.667 -12 -80 -18 -118 -18h-40c-112 0 -218.667 40 -320 120c-157.333 138 -236 355.667 -236 653v397z" />
    <glyph glyph-name="V" unicode="V" horiz-adv-x="1241" 
d="M50 1172h266l306 -629h4l309 629h266l-575 -1173h-4l-428 877z" />
    <glyph glyph-name="W" unicode="W" horiz-adv-x="1738" 
d="M997 1754l-2.00098 -1293c0 -56.667 19.667 -112.334 59 -167.001c37.333 -40.667 93.333 -61 168 -61c114.667 0 187.334 52 218.001 156c10 28 15 60.333 15 97v684h233v-689c0 -147.333 -51 -271 -153 -371c-83.333 -73.333 -188.333 -110 -315 -110
c-146.667 -0 -263.667 49.333 -351 148c-85.333 -98.667 -204 -148 -356 -148c-196 0 -335 87 -417 261c-30.667 70.667 -46 139 -46 205v704h233v-697c0 -78.667 29 -145 87 -199c38.667 -27.333 89 -41 151 -41c100.667 0 169 41 205 123c16.667 42 25 79.333 25 112v1292
h11z" />
    <glyph glyph-name="X" unicode="X" horiz-adv-x="1377" 
d="M50 1170h302l338 -402l305 369l30 33h302l-486 -584l1076 -1286h-302l-928 1102l-332 -402h-305v3l484 581v2z" />
    <glyph glyph-name="Y" unicode="Y" 
d="M50 1170l232.999 0.000976562v-482c0 -174 51.333 -306 154 -396c54 -39.333 121.333 -59 202 -59c158.667 0 264.334 82.667 317.001 248c20.667 65.333 31 122.666 31 171.999v517h233v-1296c0 -128 -44.333 -255 -133 -381c-114.667 -130 -256.334 -195 -425.001 -195
h-59c-131.333 0 -250.666 44.333 -357.999 133c-64.667 64.667 -105.667 119.334 -123 164.001c-48 102 -72 197.667 -72 287h233c0 -62.667 21.333 -133.334 64 -212.001c62 -92.667 151.667 -139 269 -139h36c153.333 0 257.333 73.333 312 220
c15.333 55.333 23 100.666 23 135.999v228c-96 -76.667 -213.667 -115 -353 -115c-250.667 0 -426.667 122.667 -528 368c-37.333 98.667 -56 206.334 -56 323.001v479z" />
    <glyph glyph-name="Z" unicode="Z" 
d="M-180 1170h1400v-164l-771 -773h1071v-233h-1470v166l768 771h-998v233z" />
    <glyph glyph-name="bracketleft" unicode="[" horiz-adv-x="568" 
d="M50 1756h468v-233h-230l-5 -5v-1280l5 -5h230v-233h-468v1756z" />
    <glyph glyph-name="backslash" unicode="\" horiz-adv-x="830" 
d="M570 -78l-498 1858l216 58l498 -1858z" />
    <glyph glyph-name="bracketright" unicode="]" horiz-adv-x="568" 
d="M518 0h-468v233h230l6 5v1280l-6 5h-230v233h468v-1756z" />
    <glyph glyph-name="asciicircum" unicode="^" horiz-adv-x="763" 
d="M380 804l333 -497v-3l-195 -128l-138 205c-86 -132 -132 -200.333 -138 -205c0 3.33301 -64 46 -192 128z" />
    <glyph glyph-name="underscore" unicode="_" horiz-adv-x="1180" 
d="M75 -6h1002v-224h-1002v224z" />
    <glyph glyph-name="grave" unicode="`" horiz-adv-x="682" 
d="M104 1588l150 178l300 -252l-150 -178z" />
    <glyph glyph-name="a" unicode="a" 
d="M636 1170c125.333 0 241.333 -38.333 348 -115h3v115h233v-1170h-233v115c-108.667 -76.667 -219.667 -115 -333 -115h-31c-175.333 0 -327 76.667 -455 230c-78.667 110.667 -118 228.667 -118 354c0 194 83.667 354.333 251 481c103.333 70 215 105 335 105zM283 586
c0 -130.667 62.332 -234.667 186.999 -312c52.667 -27.333 106.334 -41 161.001 -41h15c106 0 198.333 49.333 277 148c42.667 64.667 64 128.667 64 192v16c0 122 -58 221.667 -174 299c-59.333 32.667 -119 49 -179 49c-112 0 -206.667 -49.333 -284 -148
c-44.667 -66 -67 -133.667 -67 -203z" />
    <glyph glyph-name="b" unicode="b" 
d="M50 1756h233.001v-701h3c105.333 76.667 223.666 115 354.999 115c180 0 333 -76 459 -228c80 -108 120 -223.333 120 -346v-23c0 -177.333 -76.667 -329 -230 -455c-108 -78.667 -224.333 -118 -349 -118h-7c-127.333 -0 -243.333 38.333 -348 115h-3v-115h-233v1756z
M283.001 584c0 -126 60.667 -228.668 182 -308.001c56.667 -28.667 113.667 -43 171 -43c114 0 208.667 48.667 284 146c44.667 64 67 128.667 67 194v23c0 98.667 -44.333 186.667 -133 264c-64.667 51.333 -139 77 -223 77c-117.333 0 -216.333 -56.333 -297 -169
c-34 -63.333 -51 -124.666 -51 -183.999z" />
    <glyph glyph-name="c" unicode="c" horiz-adv-x="1168" 
d="M639 1170c187.333 0 345.001 -81 473.001 -243l6 -10c-122.667 -92.667 -186 -139 -190 -139c-74 106 -173 159 -297 159c-118 0 -217 -56.333 -297 -169c-34 -62.667 -51 -124 -51 -184c0 -126 60.667 -228.333 182 -307c56.667 -29.333 113.667 -44 171 -44
c118 0 216.333 53 295 159l187 -139c-11.333 -24 -49 -64.667 -113 -122c-110 -87.333 -231.333 -131 -364 -131h-7c-183.333 0 -338 76 -464 228c-80 110 -120 229.333 -120 358c0 164.667 64 309 192 433c115.333 100.667 247.666 151 396.999 151z" />
    <glyph glyph-name="d" unicode="d" 
d="M987 1756h233v-1756h-233v115c-108.667 -76.667 -224 -115 -346 -115h-12c-188.667 0 -347.667 83.667 -477 251c-68 105.333 -102 217 -102 335c0 192 83.667 352.333 251 481c104 68.667 217.333 103 340 103s237 -38.333 343 -115h3v701zM283 584
c0 -124 57.999 -224.668 173.999 -302.001c54.667 -32.667 116 -49 184 -49c116 0 212.667 53.667 290 161c37.333 60.667 56 121.334 56 182.001v18c0 109.333 -51.333 203 -154 281c-61.333 41.333 -128.666 62 -201.999 62c-114 0 -210.333 -53 -289 -159
c-39.333 -62 -59 -126.667 -59 -194z" />
    <glyph glyph-name="e" unicode="e" horiz-adv-x="1272" 
d="M639 1170c172 0 320.332 -68.999 444.999 -206.999c92 -116 138 -241.667 138 -377c-1.33301 -44 -5.33301 -83 -12 -117h-904c28.667 -86 86 -152 172 -198c50.667 -25.333 103.334 -38 158.001 -38c92 0 175 34 249 102l163 -163v-3
c-118 -112.667 -254.333 -169 -409 -169h-5c-174 0 -322.667 69 -446 207c-92 115.333 -138 241 -138 377c0 173.333 69 322.666 207 447.999c112 92 239.333 138 382 138zM305.999 701.001h660c-26 78 -78.667 142 -158 192c-59.333 29.333 -117.333 44 -174 44
c-124 0 -225.667 -59.667 -305 -179z" />
    <glyph glyph-name="f" unicode="f" horiz-adv-x="874" 
d="M802 1756l15 0.000976562v-233h-15c-120 0 -196 -41.667 -228 -125c-16.667 -44 -25 -84.333 -25 -121v-107h260v-233h-260v-937h-233v937h-251v233h251v107c0 149.333 54.667 275.666 164 378.999c42 32 86.333 56.667 133 74c56 17.333 119 26 189 26z" />
    <glyph glyph-name="g" unicode="g" 
d="M634 1172c126.667 0 243.335 -38.334 350.002 -115.001h3v115h233v-1254c0 -223.333 -79.333 -396.666 -238 -519.999c-100.667 -66.667 -216.667 -100 -348 -100v233c159.333 0 266.666 69 321.999 207c20.667 59.333 31 118.333 31 177v202h-3
c-105.333 -76.667 -221.333 -115 -348 -115h-7c-190.667 0 -350.334 84.333 -479.001 253c-66.667 106 -100 209.333 -100 310v44c0 132.667 52 259 156 379c121.333 122.667 264 184 428 184zM283.001 600.999l-0.000976562 -28.001c0 -98 45.333 -186 136 -264
c65.333 -49.333 137 -74 215 -74c138.667 0 246 69 322 207c20.667 56.667 31 105.334 31 146.001c0 100.667 -41.667 189.667 -125 267c-68.667 56 -144.667 84 -228 84c-129.333 0 -232.666 -61.333 -309.999 -184c-27.333 -56.667 -41 -108 -41 -154z" />
    <glyph glyph-name="h" unicode="h" 
d="M50 1756h233.001v-701h3c105.333 76.667 223.666 115 354.999 115c176.667 0 329.667 -75 459 -225c80 -112 120 -228.333 120 -349v-596h-233v589c0 120 -55.333 218 -166 294c-56.667 36 -120 54 -190 54c-110 0 -203.667 -49.667 -281 -149
c-44.667 -60 -67 -134 -67 -222v-566h-233v1756z" />
    <glyph glyph-name="i" unicode="i" horiz-adv-x="333" 
d="M50 1170h233v-1170h-233v1170zM168 1484c55.333 0 92.668 -30.667 112.001 -92l3 -26c0 -54 -29 -91.667 -87 -113l-23 -2h-10c-52.667 0 -89.334 29 -110.001 87l-3 23v8c0 53.333 28 90 84 110z" />
    <glyph glyph-name="j" unicode="j" horiz-adv-x="337" 
d="M54 1170h233.001v-1272c0 -174 -59 -324.333 -177 -451c-108.667 -100.667 -244.334 -151 -407.001 -151v233c166.667 0 276 76 328 228c15.333 53.333 23 101 23 143v1270zM172.001 1484c55.333 0 92.668 -30.667 112.001 -92l3 -26c0 -54 -29 -91.667 -87 -113l-23 -2
h-10c-52.667 0 -89.334 29 -110.001 87l-3 23v8c0 53.333 28 90 84 110z" />
    <glyph glyph-name="k" unicode="k" horiz-adv-x="1196" 
d="M50 1756h233v-1011h3l501 425h359v-3l-121 -100l-565 -483l683 -584h-358l-502 425v-425h-233v1756z" />
    <glyph glyph-name="l" unicode="l" horiz-adv-x="333" 
d="M50 1756h233v-1756h-233v1756z" />
    <glyph glyph-name="m" unicode="m" horiz-adv-x="1738" 
d="M50 1170l232.998 -0.000976562v-61h3c72.667 40.667 150 61 232 61c135.333 0 252.333 -53 351 -159c96 106 214.667 159 356 159c128.667 0 242.334 -50.333 341.001 -151c81.333 -92 122 -199.667 122 -323v-696h-233v696c0 108 -54.333 185 -163 231
c-30 6.66699 -54 10 -72 10c-95.333 0 -168 -48.667 -218 -146c-12 -31.333 -18 -70.666 -18 -117.999v-673h-233v709c0 85.333 -45 154.666 -135 207.999c-37.333 13.333 -71.666 20 -102.999 20c-86 0 -156 -45.333 -210 -136c-13.333 -37.333 -20 -68.666 -20 -93.999
v-707h-233v1170z" />
    <glyph glyph-name="n" unicode="n" 
d="M50 1170h233.001v-102h3c98 68 214 102 348 102c260 0 440.667 -117 542 -351c29.333 -76.667 44 -151.667 44 -225v-594h-233v586c0 94 -30 177 -90 249c-62.667 68 -150.334 102 -263.001 102c-160 0 -267.667 -69 -323 -207c-18.667 -48.667 -28 -99 -28 -151v-579
h-233v1170z" />
    <glyph glyph-name="o" unicode="o" horiz-adv-x="1272" 
d="M641 1170c153.333 0 290 -57.333 410 -172c114 -120.667 171 -258.667 171 -414c0 -162.667 -63 -306 -189 -430c-116 -102.667 -247.333 -154 -394 -154h-5c-174 0 -322.667 69 -446 207c-92 115.333 -138 241 -138 377c0 118 35 229.667 105 335
c125.333 167.333 287.333 251 486 251zM286 604l-0.00195312 -14.999l-3 -3l3 -2v-16c0 -94.667 45 -182.334 135 -263.001c68.667 -48 140.334 -72 215.001 -72c115.333 0 211 49.333 287 148c44.667 66 67 133.667 67 203c0 121.333 -56.333 222 -169 302
c-61.333 34 -124.666 51 -189.999 51c-116.667 0 -214 -54.667 -292 -164c-35.333 -60 -53 -116.333 -53 -169z" />
    <glyph glyph-name="p" unicode="p" 
d="M50 1174h232.999v-115h5c108 76.667 223.333 115 346 115c182.667 0 337 -75 463 -225c82 -110.667 123 -225 123 -343v-36c0 -154.667 -65 -294.667 -195 -420c-118 -97.333 -240 -146 -366 -146h-46c-109.333 0 -217.666 37.667 -324.999 113h-5v-817h-233v1874z
M282.999 590c0 -130.667 61.332 -234.668 183.999 -312.001c56.667 -27.333 108 -41 154 -41h31c96.667 0 185.334 46 266.001 138c46 68 69 137.333 69 208v10c0 112.667 -50.333 207.334 -151 284.001c-65.333 42.667 -132 64 -200 64c-112.667 0 -208 -49.333 -286 -148
c-44.667 -66 -67 -133.667 -67 -203z" />
    <glyph glyph-name="q" unicode="q" horiz-adv-x="1274" 
d="M634 1174c124.667 0 242.334 -39.332 353.001 -117.999v118h233v-1283c0 -96.667 32.333 -184.334 97 -263.001c59.333 -63.333 144.666 -95 255.999 -95v-233h-5c-265.333 0 -446.333 123.667 -543 371c-25.333 78 -38 149.667 -38 215v233
c-110.667 -76.667 -220.667 -115 -330 -115h-46c-126 0 -248 48.667 -366 146c-59.333 57.333 -100.333 108.666 -123 153.999c-48 91.333 -72 180 -72 266v28c0 160.667 64 302.334 192 425.001c117.333 100.667 248 151 392 151zM283 593.001l-0.000976562 -10.001
c0 -116 53 -212.667 159 -290c60 -37.333 118.667 -56 176 -56h31c97.333 0 184.333 44.333 261 133c51.333 66.667 77 139.334 77 218.001c0 123.333 -56.333 223 -169 299c-61.333 36 -122.666 54 -183.999 54c-114.667 0 -213 -53 -295 -159
c-37.333 -63.333 -56 -126.333 -56 -189z" />
    <glyph glyph-name="r" unicode="r" horiz-adv-x="801" 
d="M50 1170h233v-133h3c124 88.667 279 133 465 133v-233c-225.333 0 -372 -78.667 -440 -236c-18.667 -46 -28 -88.667 -28 -128v-573h-233v1170z" />
    <glyph glyph-name="s" unicode="s" horiz-adv-x="1162" 
d="M435 1170h675.999v-233h-676c-63.333 0 -102.666 -10.333 -117.999 -31c-22 -31.333 -33 -62 -33 -92c0 -52 24 -87 72 -105l43 -8h313c189.333 0 313 -72.333 371 -217c15.333 -46 23 -91.333 23 -136c0 -144 -64 -248 -192 -312c-52 -24 -100.667 -36 -146 -36h-712
v233h699c54 0 90.667 23 110 69l8 49c0 78.667 -47.667 118 -143 118h-338c-88.667 0 -170.667 34 -246 102c-63.333 66.667 -95 148.667 -95 246c0 88 30.667 169.667 92 245c60.667 72 158 108 292 108z" />
    <glyph glyph-name="t" unicode="t" horiz-adv-x="708" 
d="M240 1761h233v-591h200v-233h-200v-937h-233v937h-201v233h201v591z" />
    <glyph glyph-name="u" unicode="u" horiz-adv-x="1272" 
d="M50 1170h233v-410c1.33301 -253.333 71.333 -419.666 210 -498.999c44.667 -18.667 86.334 -28 125.001 -28h16c82 0 161.333 35 238 105c51.333 57.333 84.666 124 99.999 200c12 43.333 18 123.333 18 240v392h232v-376c0 -196 -17.667 -333.667 -53 -413
c-21.333 -54.667 -51.333 -108.334 -90 -161.001c-73.333 -96 -178.333 -163.333 -315 -202c-40.667 -12 -80 -18 -118 -18h-40c-112 0 -218.667 40 -320 120c-157.333 138 -236 355.667 -236 653v397z" />
    <glyph glyph-name="v" unicode="v" horiz-adv-x="1241" 
d="M50 1172h266l306 -629h4l309 629h266l-575 -1173h-4l-428 877z" />
    <glyph glyph-name="w" unicode="w" horiz-adv-x="1738" 
d="M984 1172l2.99902 -47.999l8 -663c0 -56.667 19.667 -112.334 59 -167.001c37.333 -40.667 93.333 -61 168 -61c114.667 0 187.334 52 218.001 156c10 28 15 60.333 15 97v684h233v-689c0 -147.333 -51 -271 -153 -371c-83.333 -73.333 -188.333 -110 -315 -110
c-146.667 -0 -263.667 49.333 -351 148c-85.333 -98.667 -204 -148 -356 -148c-196 0 -335 87 -417 261c-30.667 70.667 -46 139 -46 205v704h233v-697c0 -78.667 29 -145 87 -199c38.667 -27.333 89 -41 151 -41c100.667 0 169 41 205 123c16.667 42 25 79.333 25 112v702
h11z" />
    <glyph glyph-name="x" unicode="x" horiz-adv-x="1377" 
d="M50 1170h302l338 -402l305 369l30 33h302l-486 -584l486 -586h-302l-338 402l-332 -402h-305v3l484 581v2z" />
    <glyph glyph-name="y" unicode="y" 
d="M50 1170l232.999 0.000976562v-482c0 -174 51.333 -306 154 -396c54 -39.333 121.333 -59 202 -59c158.667 0 264.334 82.667 317.001 248c20.667 65.333 31 122.666 31 171.999v517h233v-1296c0 -128 -44.333 -255 -133 -381c-114.667 -130 -259.667 -195 -435 -195v233
c153.333 0 257.333 73.333 312 220c15.333 55.333 23 100.666 23 135.999v228c-96 -76.667 -213.667 -115 -353 -115c-250.667 0 -426.667 122.667 -528 368c-37.333 98.667 -56 206.334 -56 323.001v479z" />
    <glyph glyph-name="z" unicode="z" 
d="M50 1170h1170v-164l-771 -773h771v-233h-1170v166l768 771h-768v233z" />
    <glyph glyph-name="braceleft" unicode="{" horiz-adv-x="766" 
d="M641 1866l74.999 -195.003c-56.667 -21.333 -108 -47.666 -154 -78.999c-56 -40.667 -84 -99.667 -84 -177l15 -238c0 -132.667 -43.667 -248.667 -131 -348c92.667 -112 139 -234 139 -366c0 -32 -7.66699 -113 -23 -243v-8c0 -68 40.667 -121.667 122 -161
c0 -3.33301 37.667 -22.333 113 -57l3 -2v-3l-75 -189h-2c-61.333 20 -130.666 55 -207.999 105c-108.667 82.667 -163 177.334 -163 284.001v36c0 22 6.66699 91 20 207l3 31c0 114.667 -67.667 227.334 -203 338.001l-38 38l136 113c64.667 61.333 97 138 97 230l-15 236
v7c0 206 124.333 353.667 373 443v-2z" />
    <glyph glyph-name="bar" unicode="|" horiz-adv-x="333" 
d="M50 1756h233v-1756h-233v1756z" />
    <glyph glyph-name="braceright" unicode="}" horiz-adv-x="766" 
d="M124 1868c249.333 -89.333 374 -236.997 374 -442.997v-7l-15 -236c0 -92 32.333 -168.667 97 -230l136 -113l-39 -38c-134.667 -110.667 -202 -223.334 -202 -338.001l3 -31c13.333 -116 20 -185 20 -207v-36c0 -106.667 -54.667 -201.334 -164 -284.001
c-77.333 -50 -146.333 -85 -207 -105h-3l-74 189v3l3 2c74.667 34.667 112 53.667 112 57c82 39.333 123 93 123 161v8c-15.333 130 -23 211 -23 243c0 132 46 254 138 366c-86.667 99.333 -130 215.333 -130 348l15 238c0 77.333 -28 136.333 -84 177
c-46 31.333 -97.333 57.666 -154 78.999l74 195v2z" />
    <glyph glyph-name="asciitilde" unicode="~" horiz-adv-x="1005" 
d="M344 1631c88.667 0 174 -46 256 -138c8.66699 -5.33301 17 -8 25 -8h13c15.333 0 23 15.333 23 46v69h233v-74c0 -92.667 -33.333 -167 -100 -223c-46.667 -34 -96 -51 -148 -51h-28c-77.333 0 -149 35 -215 105c-23.333 27.333 -46.333 41 -69 41
c-17.333 0 -26 -13.667 -26 -41v-105h-233v115c0 98.667 42.667 175.667 128 231c38 22 85 33 141 33z" />
    <glyph glyph-name="exclamdown" unicode="&#xa1;" horiz-adv-x="333" 
d="M293 0h-233v1405h233v-1405zM175 1523c-55.333 0 -92.668 30.667 -112.001 92l-3 26c0 54 29 91.667 87 113l23 2h10c52.667 0 89.334 -29 110.001 -87l3 -23v-8c0 -54 -28 -90.667 -84 -110z" />
    <glyph glyph-name="cent" unicode="&#xa2;" horiz-adv-x="883" 
d="M471 1018c128 0 236.001 -58 324.001 -174l4 -8c-84 -66 -127.333 -99 -130 -99c-50.667 76 -118.334 114 -203.001 114c-80.667 0 -148.667 -40.333 -204 -121c-23.333 -45.333 -35 -89.333 -35 -132c0 -90 41.667 -163.333 125 -220c38.667 -20.667 77.667 -31 117 -31
c80.667 0 148 37.667 202 113l128 -99c-8 -17.333 -33.667 -46.333 -77 -87c-75.333 -62.667 -158.333 -94 -249 -94h-5c-126 0 -232 54.333 -318 163c-54.667 78.667 -82 164 -82 256c0 118 43.667 221.333 131 310c79.333 72.667 170 109 272 109zM196.001 -51l341 1330
l148 -42l-341 -1330z" />
    <glyph glyph-name="sterling" unicode="&#xa3;" horiz-adv-x="100" 
 />
    <glyph glyph-name="currency" unicode="&#xa4;" horiz-adv-x="100" 
 />
    <glyph glyph-name="yen" unicode="&#xa5;" horiz-adv-x="100" 
 />
    <glyph glyph-name="brokenbar" unicode="&#xa6;" horiz-adv-x="100" 
 />
    <glyph glyph-name="section" unicode="&#xa7;" horiz-adv-x="100" 
 />
    <glyph glyph-name="dieresis" unicode="&#xa8;" horiz-adv-x="944" 
d="M309 1511c49.333 0 84.333 -28.999 105 -86.999l3 -23v-10c0 -52.667 -30.667 -89.334 -92 -110.001l-23 -3c-56.667 0 -95 30.667 -115 92l-3 26c0 60.667 33.333 99 100 115h25zM642 1511h21.001c47.333 0 81.333 -29 102 -87l3 -20v-16
c0 -51.333 -30.667 -87 -92 -107l-26 -3c-52.667 0 -90.334 30.667 -113.001 92l-2 26c0 53.333 29 91 87 113z" />
    <glyph glyph-name="copyright" unicode="&#xa9;" horiz-adv-x="100" 
 />
    <glyph glyph-name="ordfeminine" unicode="&#xaa;" horiz-adv-x="100" 
 />
    <glyph glyph-name="guillemotleft" unicode="&#xab;" horiz-adv-x="100" 
 />
    <glyph glyph-name="logicalnot" unicode="&#xac;" horiz-adv-x="100" 
 />
    <glyph glyph-name="registered" unicode="&#xae;" horiz-adv-x="100" 
 />
    <glyph glyph-name="macron" unicode="&#xaf;" horiz-adv-x="100" 
 />
    <glyph glyph-name="degree" unicode="&#xb0;" horiz-adv-x="1041" 
d="M515 1083c150 0 269.332 -69.333 357.999 -208c34 -66 51 -130.667 51 -194v-16c0 -126.667 -55.333 -234 -166 -322c-73.333 -52.667 -155.333 -79 -246 -79c-127.333 0 -235.666 54.333 -324.999 163c-54.667 77.333 -82 159.333 -82 246c0 130.667 54.667 240 164 328
c72.667 54.667 154.667 82 246 82zM337.999 673c0 -71.333 37.667 -126 113 -164c26 -8.66699 48 -13 66 -13c65.333 0 117.333 33.333 156 100c12 26.667 18 50.667 18 72v10c0 68 -36.667 121 -110 159c-24 8.66699 -46 13 -66 13c-78.667 0 -135 -42.667 -169 -128z" />
    <glyph glyph-name="plusminus" unicode="&#xb1;" horiz-adv-x="100" 
 />
    <glyph glyph-name="uni00B2" unicode="&#xb2;" horiz-adv-x="100" 
 />
    <glyph glyph-name="uni00B3" unicode="&#xb3;" horiz-adv-x="100" 
 />
    <glyph glyph-name="acute" unicode="&#xb4;" horiz-adv-x="682" 
d="M254 1327l-150 178l300 252l150 -178z" />
    <glyph glyph-name="mu" unicode="&#xb5;" horiz-adv-x="100" 
 />
    <glyph glyph-name="paragraph" unicode="&#xb6;" horiz-adv-x="100" 
 />
    <glyph glyph-name="periodcentered" unicode="&#xb7;" horiz-adv-x="332" 
d="M176 710c55.333 0 92.668 -30.667 112.001 -92l3 -26c0 -54 -29 -91.667 -87 -113l-23 -2h-10c-52.667 0 -89.334 29 -110.001 87l-3 23v8c0 53.333 28 90 84 110z" />
    <glyph glyph-name="periodcentered" unicode="&#x2219;" horiz-adv-x="332" 
d="M176 710c55.333 0 92.668 -30.667 112.001 -92l3 -26c0 -54 -29 -91.667 -87 -113l-23 -2h-10c-52.667 0 -89.334 29 -110.001 87l-3 23v8c0 53.333 28 90 84 110z" />
    <glyph glyph-name="cedilla" unicode="&#xb8;" horiz-adv-x="821" 
d="M393 -114l5 -0.000976562c153.333 -58.667 230 -168.667 230 -330c0 -51.333 -10 -101.666 -30 -150.999c-65.333 -132.667 -179 -199 -341 -199h-97v232h100c90.667 0 136 39.333 136 118c0 36 -11.333 66 -34 90c-31.333 18.667 -61 28 -89 28h-113v468h233v-256z" />
    <glyph glyph-name="uni00B9" unicode="&#xb9;" horiz-adv-x="100" 
 />
    <glyph glyph-name="ordmasculine" unicode="&#xba;" horiz-adv-x="100" 
 />
    <glyph glyph-name="guillemotright" unicode="&#xbb;" horiz-adv-x="100" 
 />
    <glyph glyph-name="onequarter" unicode="&#xbc;" horiz-adv-x="100" 
 />
    <glyph glyph-name="onehalf" unicode="&#xbd;" horiz-adv-x="100" 
 />
    <glyph glyph-name="threequarters" unicode="&#xbe;" horiz-adv-x="100" 
 />
    <glyph glyph-name="questiondown" unicode="&#xbf;" horiz-adv-x="100" 
 />
    <glyph glyph-name="Agrave" unicode="&#xc0;" 
d="M636 1170c125.333 0 241.333 -38.333 348 -115h3v115h233v-1170h-233v115c-108.667 -76.667 -219.667 -115 -333 -115h-31c-175.333 0 -327 76.667 -455 230c-78.667 110.667 -118 228.667 -118 354c0 194 83.667 354.333 251 481c103.333 70 215 105 335 105zM283 586
c0 -130.667 62.332 -234.667 186.999 -312c52.667 -27.333 106.334 -41 161.001 -41h15c106 0 198.333 49.333 277 148c42.667 64.667 64 128.667 64 192v16c0 122 -58 221.667 -174 299c-59.333 32.667 -119 49 -179 49c-112 0 -206.667 -49.333 -284 -148
c-44.667 -66 -67 -133.667 -67 -203zM334.999 1535l150 178l300 -252l-150 -178z" />
    <glyph glyph-name="Aacute" unicode="&#xc1;" 
d="M636 1170c125.333 0 241.333 -38.333 348 -115h3v115h233v-1170h-233v115c-108.667 -76.667 -219.667 -115 -333 -115h-31c-175.333 0 -327 76.667 -455 230c-78.667 110.667 -118 228.667 -118 354c0 194 83.667 354.333 251 481c103.333 70 215 105 335 105zM283 586
c0 -130.667 62.332 -234.667 186.999 -312c52.667 -27.333 106.334 -41 161.001 -41h15c106 0 198.333 49.333 277 148c42.667 64.667 64 128.667 64 192v16c0 122 -58 221.667 -174 299c-59.333 32.667 -119 49 -179 49c-112 0 -206.667 -49.333 -284 -148
c-44.667 -66 -67 -133.667 -67 -203zM634.999 1254l-150 178l300 252l150 -178z" />
    <glyph glyph-name="Acircumflex" unicode="&#xc2;" 
d="M636 1170c125.333 0 241.333 -38.333 348 -115h3v115h233v-1170h-233v115c-108.667 -76.667 -219.667 -115 -333 -115h-31c-175.333 0 -327 76.667 -455 230c-78.667 110.667 -118 228.667 -118 354c0 194 83.667 354.333 251 481c103.333 70 215 105 335 105zM283 586
c0 -130.667 62.332 -234.667 186.999 -312c52.667 -27.333 106.334 -41 161.001 -41h15c106 0 198.333 49.333 277 148c42.667 64.667 64 128.667 64 192v16c0 122 -58 221.667 -174 299c-59.333 32.667 -119 49 -179 49c-112 0 -206.667 -49.333 -284 -148
c-44.667 -66 -67 -133.667 -67 -203zM633.999 1761l417 -279c-84 -128 -127.667 -192 -131 -192l-284 189l-289 -189l-128 194c4 0 142.333 92.333 415 277z" />
    <glyph glyph-name="Atilde" unicode="&#xc3;" 
d="M636 1170c125.333 0 241.333 -38.333 348 -115h3v115h233v-1170h-233v115c-108.667 -76.667 -219.667 -115 -333 -115h-31c-175.333 0 -327 76.667 -455 230c-78.667 110.667 -118 228.667 -118 354c0 194 83.667 354.333 251 481c103.333 70 215 105 335 105zM283 586
c0 -130.667 62.332 -234.667 186.999 -312c52.667 -27.333 106.334 -41 161.001 -41h15c106 0 198.333 49.333 277 148c42.667 64.667 64 128.667 64 192v16c0 122 -58 221.667 -174 299c-59.333 32.667 -119 49 -179 49c-112 0 -206.667 -49.333 -284 -148
c-44.667 -66 -67 -133.667 -67 -203zM493.999 1696c88.667 0 174 -46 256 -138c8.66699 -5.33301 17 -8 25 -8h13c15.333 0 23 15.333 23 46v69h233v-74c0 -92.667 -33.333 -167 -100 -223c-46.667 -34 -96 -51 -148 -51h-28c-77.333 0 -149 35 -215 105
c-23.333 27.333 -46.333 41 -69 41c-17.333 0 -26 -13.667 -26 -41v-105h-233v115c0 98.667 42.667 175.667 128 231c38 22 85 33 141 33z" />
    <glyph glyph-name="Adieresis" unicode="&#xc4;" 
d="M636 1170c125.333 0 241.333 -38.333 348 -115h3v115h233v-1170h-233v115c-108.667 -76.667 -219.667 -115 -333 -115h-31c-175.333 0 -327 76.667 -455 230c-78.667 110.667 -118 228.667 -118 354c0 194 83.667 354.333 251 481c103.333 70 215 105 335 105zM283 586
c0 -130.667 62.332 -234.667 186.999 -312c52.667 -27.333 106.334 -41 161.001 -41h15c106 0 198.333 49.333 277 148c42.667 64.667 64 128.667 64 192v16c0 122 -58 221.667 -174 299c-59.333 32.667 -119 49 -179 49c-112 0 -206.667 -49.333 -284 -148
c-44.667 -66 -67 -133.667 -67 -203zM467.999 1527c49.333 0 84.333 -28.999 105 -86.999l3 -23v-10c0 -52.667 -30.667 -89.334 -92 -110.001l-23 -3c-56.667 0 -95 30.667 -115 92l-3 26c0 60.667 33.333 99 100 115h25zM800.999 1527h21.001c47.333 0 81.333 -29 102 -87
l3 -20v-16c0 -51.333 -30.667 -87 -92 -107l-26 -3c-52.667 0 -90.334 30.667 -113.001 92l-2 26c0 53.333 29 91 87 113z" />
    <glyph glyph-name="Aring" unicode="&#xc5;" 
d="M636 1170c125.333 0 241.333 -38.333 348 -115h3v115h233v-1170h-233v115c-108.667 -76.667 -219.667 -115 -333 -115h-31c-175.333 0 -327 76.667 -455 230c-78.667 110.667 -118 228.667 -118 354c0 194 83.667 354.333 251 481c103.333 70 215 105 335 105zM283 586
c0 -130.667 62.332 -234.667 186.999 -312c52.667 -27.333 106.334 -41 161.001 -41h15c106 0 198.333 49.333 277 148c42.667 64.667 64 128.667 64 192v16c0 122 -58 221.667 -174 299c-59.333 32.667 -119 49 -179 49c-112 0 -206.667 -49.333 -284 -148
c-44.667 -66 -67 -133.667 -67 -203zM634.999 1778c150 0 269.332 -69.333 357.999 -208c34 -66 51 -130.667 51 -194v-16c0 -126.667 -55.333 -234 -166 -322c-73.333 -52.667 -155.333 -79 -246 -79c-127.333 0 -235.666 54.333 -324.999 163
c-54.667 77.333 -82 159.333 -82 246c0 130.667 54.667 240 164 328c72.667 54.667 154.667 82 246 82zM457.998 1368c0 -71.333 37.667 -126 113 -164c26 -8.66699 48 -13 66 -13c65.333 0 117.333 33.333 156 100c12 26.667 18 50.667 18 72v10c0 68 -36.667 121 -110 159
c-24 8.66699 -46 13 -66 13c-78.667 0 -135 -42.667 -169 -128z" />
    <glyph glyph-name="AE" unicode="&#xc6;" horiz-adv-x="2168" 
d="M636 1170c125.333 0 241.333 -38.333 348 -115h3v115h233v-1170h-233v115c-108.667 -76.667 -219.667 -115 -333 -115h-31c-175.333 0 -327 76.667 -455 230c-78.667 110.667 -118 228.667 -118 354c0 194 83.667 354.333 251 481c103.333 70 215 105 335 105zM283 586
c0 -130.667 62.332 -234.667 186.999 -312c52.667 -27.333 106.334 -41 161.001 -41h15c106 0 198.333 49.333 277 148c42.667 64.667 64 128.667 64 192v16c0 122 -58 221.667 -174 299c-59.333 32.667 -119 49 -179 49c-112 0 -206.667 -49.333 -284 -148
c-44.667 -66 -67 -133.667 -67 -203zM1555 1170c172 0 320.332 -68.999 444.999 -206.999c92 -116 138 -241.667 138 -377c-1.33301 -44 -5.33301 -83 -12 -117h-904c28.667 -86 86 -152 172 -198c50.667 -25.333 103.334 -38 158.001 -38c92 0 175 34 249 102l163 -163v-3
c-118 -112.667 -254.333 -169 -409 -169h-5c-174 0 -322.667 69 -446 207c-92 115.333 -138 241 -138 377c0 173.333 69 322.666 207 447.999c112 92 239.333 138 382 138zM1222 701.001h660c-26 78 -78.667 142 -158 192c-59.333 29.333 -117.333 44 -174 44
c-124 0 -225.667 -59.667 -305 -179z" />
    <glyph glyph-name="Ccedilla" unicode="&#xc7;" horiz-adv-x="1168" 
d="M639 1170c187.333 0 345.001 -81 473.001 -243l6 -10c-122.667 -92.667 -186 -139 -190 -139c-74 106 -173 159 -297 159c-118 0 -217 -56.333 -297 -169c-34 -62.667 -51 -124 -51 -184c0 -126 60.667 -228.333 182 -307c56.667 -29.333 113.667 -44 171 -44
c118 0 216.333 53 295 159l187 -139c-11.333 -24 -49 -64.667 -113 -122c-110 -87.333 -231.333 -131 -364 -131h-7c-183.333 0 -338 76 -464 228c-80 110 -120 229.333 -120 358c0 164.667 64 309 192 433c115.333 100.667 247.666 151 396.999 151zM713.001 -114
l5 -0.000976562c153.333 -58.667 230 -168.667 230 -330c0 -51.333 -10 -101.666 -30 -150.999c-65.333 -132.667 -179 -199 -341 -199h-97v232h100c90.667 0 136 39.333 136 118c0 36 -11.333 66 -34 90c-31.333 18.667 -61 28 -89 28h-113v468h233v-256z" />
    <glyph glyph-name="Egrave" unicode="&#xc8;" horiz-adv-x="1272" 
d="M639 1170c172 0 320.332 -68.999 444.999 -206.999c92 -116 138 -241.667 138 -377c-1.33301 -44 -5.33301 -83 -12 -117h-904c28.667 -86 86 -152 172 -198c50.667 -25.333 103.334 -38 158.001 -38c92 0 175 34 249 102l163 -163v-3
c-118 -112.667 -254.333 -169 -409 -169h-5c-174 0 -322.667 69 -446 207c-92 115.333 -138 241 -138 377c0 173.333 69 322.666 207 447.999c112 92 239.333 138 382 138zM305.999 701.001h660c-26 78 -78.667 142 -158 192c-59.333 29.333 -117.333 44 -174 44
c-124 0 -225.667 -59.667 -305 -179zM335.999 1515l150 178l300 -252l-150 -178z" />
    <glyph glyph-name="Eacute" unicode="&#xc9;" horiz-adv-x="1272" 
d="M639 1170c172 0 320.332 -68.999 444.999 -206.999c92 -116 138 -241.667 138 -377c-1.33301 -44 -5.33301 -83 -12 -117h-904c28.667 -86 86 -152 172 -198c50.667 -25.333 103.334 -38 158.001 -38c92 0 175 34 249 102l163 -163v-3
c-118 -112.667 -254.333 -169 -409 -169h-5c-174 0 -322.667 69 -446 207c-92 115.333 -138 241 -138 377c0 173.333 69 322.666 207 447.999c112 92 239.333 138 382 138zM305.999 701.001h660c-26 78 -78.667 142 -158 192c-59.333 29.333 -117.333 44 -174 44
c-124 0 -225.667 -59.667 -305 -179zM635.999 1264l-150 178l300 252l150 -178z" />
    <glyph glyph-name="Ecircumflex" unicode="&#xca;" horiz-adv-x="1272" 
d="M639 1170c172 0 320.332 -68.999 444.999 -206.999c92 -116 138 -241.667 138 -377c-1.33301 -44 -5.33301 -83 -12 -117h-904c28.667 -86 86 -152 172 -198c50.667 -25.333 103.334 -38 158.001 -38c92 0 175 34 249 102l163 -163v-3
c-118 -112.667 -254.333 -169 -409 -169h-5c-174 0 -322.667 69 -446 207c-92 115.333 -138 241 -138 377c0 173.333 69 322.666 207 447.999c112 92 239.333 138 382 138zM305.999 701.001h660c-26 78 -78.667 142 -158 192c-59.333 29.333 -117.333 44 -174 44
c-124 0 -225.667 -59.667 -305 -179zM634.999 1711l417 -279c-84 -128 -127.667 -192 -131 -192l-284 189l-289 -189l-128 194c4 0 142.333 92.333 415 277z" />
    <glyph glyph-name="Edieresis" unicode="&#xcb;" horiz-adv-x="1272" 
d="M639 1170c172 0 320.332 -68.999 444.999 -206.999c92 -116 138 -241.667 138 -377c-1.33301 -44 -5.33301 -83 -12 -117h-904c28.667 -86 86 -152 172 -198c50.667 -25.333 103.334 -38 158.001 -38c92 0 175 34 249 102l163 -163v-3
c-118 -112.667 -254.333 -169 -409 -169h-5c-174 0 -322.667 69 -446 207c-92 115.333 -138 241 -138 377c0 173.333 69 322.666 207 447.999c112 92 239.333 138 382 138zM305.999 701.001h660c-26 78 -78.667 142 -158 192c-59.333 29.333 -117.333 44 -174 44
c-124 0 -225.667 -59.667 -305 -179zM468.999 1507c49.333 0 84.333 -28.999 105 -86.999l3 -23v-10c0 -52.667 -30.667 -89.334 -92 -110.001l-23 -3c-56.667 0 -95 30.667 -115 92l-3 26c0 60.667 33.333 99 100 115h25zM801.999 1507h21.001c47.333 0 81.333 -29 102 -87
l3 -20v-16c0 -51.333 -30.667 -87 -92 -107l-26 -3c-52.667 0 -90.334 30.667 -113.001 92l-2 26c0 53.333 29 91 87 113z" />
    <glyph glyph-name="Igrave" unicode="&#xcc;" horiz-adv-x="333" 
d="M50 1170h233v-1170h-233v1170zM168 1484c55.333 0 92.668 -30.667 112.001 -92l3 -26c0 -54 -29 -91.667 -87 -113l-23 -2h-10c-52.667 0 -89.334 29 -110.001 87l-3 23v8c0 53.333 28 90 84 110zM-133.998 1845l150 178l300 -252l-150 -178z" />
    <glyph glyph-name="Iacute" unicode="&#xcd;" horiz-adv-x="333" 
d="M50 1170h233v-1170h-233v1170zM168 1484c55.333 0 92.668 -30.667 112.001 -92l3 -26c0 -54 -29 -91.667 -87 -113l-23 -2h-10c-52.667 0 -89.334 29 -110.001 87l-3 23v8c0 53.333 28 90 84 110zM166.002 1583l-150 178l300 252l150 -178z" />
    <glyph glyph-name="Icircumflex" unicode="&#xce;" horiz-adv-x="333" 
d="M50 1170h233v-1170h-233v1170zM168 1484c55.333 0 92.668 -30.667 112.001 -92l3 -26c0 -54 -29 -91.667 -87 -113l-23 -2h-10c-52.667 0 -89.334 29 -110.001 87l-3 23v8c0 53.333 28 90 84 110zM165.002 1921l417 -279c-84 -128 -127.667 -192 -131 -192l-284 189
l-289 -189l-128 194c4 0 142.333 92.333 415 277z" />
    <glyph glyph-name="Idieresis" unicode="&#xcf;" horiz-adv-x="333" 
d="M50 1170h233v-1170h-233v1170zM168 1484c55.333 0 92.668 -30.667 112.001 -92l3 -26c0 -54 -29 -91.667 -87 -113l-23 -2h-10c-52.667 0 -89.334 29 -110.001 87l-3 23v8c0 53.333 28 90 84 110zM-0.998047 1767c49.333 0 84.333 -28.999 105 -86.999l3 -23v-10
c0 -52.667 -30.667 -89.334 -92 -110.001l-23 -3c-56.667 0 -95 30.667 -115 92l-3 26c0 60.667 33.333 99 100 115h25zM332.002 1767h21.001c47.333 0 81.333 -29 102 -87l3 -20v-16c0 -51.333 -30.667 -87 -92 -107l-26 -3c-52.667 0 -90.334 30.667 -113.001 92l-2 26
c0 53.333 29 91 87 113z" />
    <glyph glyph-name="Eth" unicode="&#xd0;" 
d="M987 1756h233v-1756h-233v115c-108.667 -76.667 -224 -115 -346 -115h-12c-188.667 0 -347.667 83.667 -477 251c-68 105.333 -102 217 -102 335c0 192 83.667 352.333 251 481c104 68.667 217.333 103 340 103s237 -38.333 343 -115h3v701zM283 584
c0 -124 57.999 -224.668 173.999 -302.001c54.667 -32.667 116 -49 184 -49c116 0 212.667 53.667 290 161c37.333 60.667 56 121.334 56 182.001v18c0 109.333 -51.333 203 -154 281c-61.333 41.333 -128.666 62 -201.999 62c-114 0 -210.333 -53 -289 -159
c-39.333 -62 -59 -126.667 -59 -194zM124.999 703.999h1002v-224h-1002v224z" />
    <glyph glyph-name="Ntilde" unicode="&#xd1;" 
d="M50 1170h233.001v-102h3c98 68 214 102 348 102c260 0 440.667 -117 542 -351c29.333 -76.667 44 -151.667 44 -225v-594h-233v586c0 94 -30 177 -90 249c-62.667 68 -150.334 102 -263.001 102c-160 0 -267.667 -69 -323 -207c-18.667 -48.667 -28 -99 -28 -151v-579
h-233v1170zM494.001 1710c88.667 0 174 -46 256 -138c8.66699 -5.33301 17 -8 25 -8h13c15.333 0 23 15.333 23 46v69h233v-74c0 -92.667 -33.333 -167 -100 -223c-46.667 -34 -96 -51 -148 -51h-28c-77.333 0 -149 35 -215 105c-23.333 27.333 -46.333 41 -69 41
c-17.333 0 -26 -13.667 -26 -41v-105h-233v115c0 98.667 42.667 175.667 128 231c38 22 85 33 141 33z" />
    <glyph glyph-name="Ograve" unicode="&#xd2;" horiz-adv-x="1272" 
d="M641 1170c153.333 0 290 -57.333 410 -172c114 -120.667 171 -258.667 171 -414c0 -162.667 -63 -306 -189 -430c-116 -102.667 -247.333 -154 -394 -154h-5c-174 0 -322.667 69 -446 207c-92 115.333 -138 241 -138 377c0 118 35 229.667 105 335
c125.333 167.333 287.333 251 486 251zM286 604l-0.00195312 -14.999l-3 -3l3 -2v-16c0 -94.667 45 -182.334 135 -263.001c68.667 -48 140.334 -72 215.001 -72c115.333 0 211 49.333 287 148c44.667 66 67 133.667 67 203c0 121.333 -56.333 222 -169 302
c-61.333 34 -124.666 51 -189.999 51c-116.667 0 -214 -54.667 -292 -164c-35.333 -60 -53 -116.333 -53 -169zM335.998 1527l150 178l300 -252l-150 -178z" />
    <glyph glyph-name="Oacute" unicode="&#xd3;" horiz-adv-x="1272" 
d="M641 1170c153.333 0 290 -57.333 410 -172c114 -120.667 171 -258.667 171 -414c0 -162.667 -63 -306 -189 -430c-116 -102.667 -247.333 -154 -394 -154h-5c-174 0 -322.667 69 -446 207c-92 115.333 -138 241 -138 377c0 118 35 229.667 105 335
c125.333 167.333 287.333 251 486 251zM286 604l-0.00195312 -14.999l-3 -3l3 -2v-16c0 -94.667 45 -182.334 135 -263.001c68.667 -48 140.334 -72 215.001 -72c115.333 0 211 49.333 287 148c44.667 66 67 133.667 67 203c0 121.333 -56.333 222 -169 302
c-61.333 34 -124.666 51 -189.999 51c-116.667 0 -214 -54.667 -292 -164c-35.333 -60 -53 -116.333 -53 -169zM635.998 1273l-150 178l300 252l150 -178z" />
    <glyph glyph-name="Ocircumflex" unicode="&#xd4;" horiz-adv-x="1272" 
d="M641 1170c153.333 0 290 -57.333 410 -172c114 -120.667 171 -258.667 171 -414c0 -162.667 -63 -306 -189 -430c-116 -102.667 -247.333 -154 -394 -154h-5c-174 0 -322.667 69 -446 207c-92 115.333 -138 241 -138 377c0 118 35 229.667 105 335
c125.333 167.333 287.333 251 486 251zM286 604l-0.00195312 -14.999l-3 -3l3 -2v-16c0 -94.667 45 -182.334 135 -263.001c68.667 -48 140.334 -72 215.001 -72c115.333 0 211 49.333 287 148c44.667 66 67 133.667 67 203c0 121.333 -56.333 222 -169 302
c-61.333 34 -124.666 51 -189.999 51c-116.667 0 -214 -54.667 -292 -164c-35.333 -60 -53 -116.333 -53 -169zM634.998 1693l417 -279c-84 -128 -127.667 -192 -131 -192l-284 189l-289 -189l-128 194c4 0 142.333 92.333 415 277z" />
    <glyph glyph-name="Otilde" unicode="&#xd5;" horiz-adv-x="1272" 
d="M641 1170c153.333 0 290 -57.333 410 -172c114 -120.667 171 -258.667 171 -414c0 -162.667 -63 -306 -189 -430c-116 -102.667 -247.333 -154 -394 -154h-5c-174 0 -322.667 69 -446 207c-92 115.333 -138 241 -138 377c0 118 35 229.667 105 335
c125.333 167.333 287.333 251 486 251zM286 604l-0.00195312 -14.999l-3 -3l3 -2v-16c0 -94.667 45 -182.334 135 -263.001c68.667 -48 140.334 -72 215.001 -72c115.333 0 211 49.333 287 148c44.667 66 67 133.667 67 203c0 121.333 -56.333 222 -169 302
c-61.333 34 -124.666 51 -189.999 51c-116.667 0 -214 -54.667 -292 -164c-35.333 -60 -53 -116.333 -53 -169zM494.998 1632c88.667 0 174 -46 256 -138c8.66699 -5.33301 17 -8 25 -8h13c15.333 0 23 15.333 23 46v69h233v-74c0 -92.667 -33.333 -167 -100 -223
c-46.667 -34 -96 -51 -148 -51h-28c-77.333 0 -149 35 -215 105c-23.333 27.333 -46.333 41 -69 41c-17.333 0 -26 -13.667 -26 -41v-105h-233v115c0 98.667 42.667 175.667 128 231c38 22 85 33 141 33z" />
    <glyph glyph-name="Odieresis" unicode="&#xd6;" horiz-adv-x="1272" 
d="M641 1170c153.333 0 290 -57.333 410 -172c114 -120.667 171 -258.667 171 -414c0 -162.667 -63 -306 -189 -430c-116 -102.667 -247.333 -154 -394 -154h-5c-174 0 -322.667 69 -446 207c-92 115.333 -138 241 -138 377c0 118 35 229.667 105 335
c125.333 167.333 287.333 251 486 251zM286 604l-0.00195312 -14.999l-3 -3l3 -2v-16c0 -94.667 45 -182.334 135 -263.001c68.667 -48 140.334 -72 215.001 -72c115.333 0 211 49.333 287 148c44.667 66 67 133.667 67 203c0 121.333 -56.333 222 -169 302
c-61.333 34 -124.666 51 -189.999 51c-116.667 0 -214 -54.667 -292 -164c-35.333 -60 -53 -116.333 -53 -169zM468.998 1467c49.333 0 84.333 -28.999 105 -86.999l3 -23v-10c0 -52.667 -30.667 -89.334 -92 -110.001l-23 -3c-56.667 0 -95 30.667 -115 92l-3 26
c0 60.667 33.333 99 100 115h25zM801.998 1467h21.001c47.333 0 81.333 -29 102 -87l3 -20v-16c0 -51.333 -30.667 -87 -92 -107l-26 -3c-52.667 0 -90.334 30.667 -113.001 92l-2 26c0 53.333 29 91 87 113z" />
    <glyph glyph-name="multiply" unicode="&#xd7;" horiz-adv-x="1241" 
d="M202 312l709 708l158 -158l-709 -709zM915 162l-708 709l158 158l709 -708z" />
    <glyph glyph-name="Oslash" unicode="&#xd8;" horiz-adv-x="1272" 
d="M641 1170c153.333 0 290 -57.333 410 -172c114 -120.667 171 -258.667 171 -414c0 -162.667 -63 -306 -189 -430c-116 -102.667 -247.333 -154 -394 -154h-5c-174 0 -322.667 69 -446 207c-92 115.333 -138 241 -138 377c0 118 35 229.667 105 335
c125.333 167.333 287.333 251 486 251zM286 604l-0.00195312 -14.999l-3 -3l3 -2v-16c0 -94.667 45 -182.334 135 -263.001c68.667 -48 140.334 -72 215.001 -72c115.333 0 211 49.333 287 148c44.667 66 67 133.667 67 203c0 121.333 -56.333 222 -169 302
c-61.333 34 -124.666 51 -189.999 51c-116.667 0 -214 -54.667 -292 -164c-35.333 -60 -53 -116.333 -53 -169zM365.998 -19.999l498 1858l216 -58l-498 -1858z" />
    <glyph glyph-name="Ugrave" unicode="&#xd9;" horiz-adv-x="1272" 
d="M50 1170h233v-410c1.33301 -253.333 71.333 -419.666 210 -498.999c44.667 -18.667 86.334 -28 125.001 -28h16c82 0 161.333 35 238 105c51.333 57.333 84.666 124 99.999 200c12 43.333 18 123.333 18 240v392h232v-376c0 -196 -17.667 -333.667 -53 -413
c-21.333 -54.667 -51.333 -108.334 -90 -161.001c-73.333 -96 -178.333 -163.333 -315 -202c-40.667 -12 -80 -18 -118 -18h-40c-112 0 -218.667 40 -320 120c-157.333 138 -236 355.667 -236 653v397zM336 1542l150 178l300 -252l-150 -178z" />
    <glyph glyph-name="Uacute" unicode="&#xda;" horiz-adv-x="1272" 
d="M50 1170h233v-410c1.33301 -253.333 71.333 -419.666 210 -498.999c44.667 -18.667 86.334 -28 125.001 -28h16c82 0 161.333 35 238 105c51.333 57.333 84.666 124 99.999 200c12 43.333 18 123.333 18 240v392h232v-376c0 -196 -17.667 -333.667 -53 -413
c-21.333 -54.667 -51.333 -108.334 -90 -161.001c-73.333 -96 -178.333 -163.333 -315 -202c-40.667 -12 -80 -18 -118 -18h-40c-112 0 -218.667 40 -320 120c-157.333 138 -236 355.667 -236 653v397zM636 1265l-150 178l300 252l150 -178z" />
    <glyph glyph-name="Ucircumflex" unicode="&#xdb;" horiz-adv-x="1272" 
d="M50 1170h233v-410c1.33301 -253.333 71.333 -419.666 210 -498.999c44.667 -18.667 86.334 -28 125.001 -28h16c82 0 161.333 35 238 105c51.333 57.333 84.666 124 99.999 200c12 43.333 18 123.333 18 240v392h232v-376c0 -196 -17.667 -333.667 -53 -413
c-21.333 -54.667 -51.333 -108.334 -90 -161.001c-73.333 -96 -178.333 -163.333 -315 -202c-40.667 -12 -80 -18 -118 -18h-40c-112 0 -218.667 40 -320 120c-157.333 138 -236 355.667 -236 653v397zM635 1755l417 -279c-84 -128 -127.667 -192 -131 -192l-284 189
l-289 -189l-128 194c4 0 142.333 92.333 415 277z" />
    <glyph glyph-name="Udieresis" unicode="&#xdc;" horiz-adv-x="1272" 
d="M50 1170h233v-410c1.33301 -253.333 71.333 -419.666 210 -498.999c44.667 -18.667 86.334 -28 125.001 -28h16c82 0 161.333 35 238 105c51.333 57.333 84.666 124 99.999 200c12 43.333 18 123.333 18 240v392h232v-376c0 -196 -17.667 -333.667 -53 -413
c-21.333 -54.667 -51.333 -108.334 -90 -161.001c-73.333 -96 -178.333 -163.333 -315 -202c-40.667 -12 -80 -18 -118 -18h-40c-112 0 -218.667 40 -320 120c-157.333 138 -236 355.667 -236 653v397zM470 1494c49.333 0 84.333 -28.999 105 -86.999l3 -23v-10
c0 -52.667 -30.667 -89.334 -92 -110.001l-23 -3c-56.667 0 -95 30.667 -115 92l-3 26c0 60.667 33.333 99 100 115h25zM803 1494h21.001c47.333 0 81.333 -29 102 -87l3 -20v-16c0 -51.333 -30.667 -87 -92 -107l-26 -3c-52.667 0 -90.334 30.667 -113.001 92l-2 26
c0 53.333 29 91 87 113z" />
    <glyph glyph-name="Yacute" unicode="&#xdd;" 
d="M50 1170l232.999 0.000976562v-482c0 -174 51.333 -306 154 -396c54 -39.333 121.333 -59 202 -59c158.667 0 264.334 82.667 317.001 248c20.667 65.333 31 122.666 31 171.999v517h233v-1296c0 -128 -44.333 -255 -133 -381c-114.667 -130 -256.334 -195 -425.001 -195
h-59c-131.333 0 -250.666 44.333 -357.999 133c-64.667 64.667 -105.667 119.334 -123 164.001c-48 102 -72 197.667 -72 287h233c0 -62.667 21.333 -133.334 64 -212.001c62 -92.667 151.667 -139 269 -139h36c153.333 0 257.333 73.333 312 220
c15.333 55.333 23 100.666 23 135.999v228c-96 -76.667 -213.667 -115 -353 -115c-250.667 0 -426.667 122.667 -528 368c-37.333 98.667 -56 206.334 -56 323.001v479zM634.999 1267l-150 178l300 252l150 -178z" />
    <glyph glyph-name="Thorn" unicode="&#xde;" 
d="M50 974h232.999v-115h5c108 76.667 223.333 115 346 115c182.667 0 337 -75 463 -225c82 -110.667 123 -225 123 -343v-36c0 -154.667 -65 -294.667 -195 -420c-118 -97.333 -240 -146 -366 -146h-46c-109.333 0 -217.666 37.667 -324.999 113h-5v-817h-233v1874z
M282.999 390c0 -130.667 61.332 -234.668 183.999 -312.001c56.667 -27.333 108 -41 154 -41h31c96.667 0 185.334 46 266.001 138c46 68 69 137.333 69 208v10c0 112.667 -50.333 207.334 -151 284.001c-65.333 42.667 -132 64 -200 64c-112.667 0 -208 -49.333 -286 -148
c-44.667 -66 -67 -133.667 -67 -203zM49.998 1170h233v-1170h-233v1170zM167.998 1484c55.333 0 92.668 -30.667 112.001 -92l3 -26c0 -54 -29 -91.667 -87 -113l-23 -2h-10c-52.667 0 -89.334 29 -110.001 87l-3 23v8c0 53.333 28 90 84 110z" />
    <glyph glyph-name="germandbls" unicode="&#xdf;" horiz-adv-x="100" 
 />
    <glyph glyph-name="agrave" unicode="&#xe0;" 
d="M636 1170c125.333 0 241.333 -38.333 348 -115h3v115h233v-1170h-233v115c-108.667 -76.667 -219.667 -115 -333 -115h-31c-175.333 0 -327 76.667 -455 230c-78.667 110.667 -118 228.667 -118 354c0 194 83.667 354.333 251 481c103.333 70 215 105 335 105zM283 586
c0 -130.667 62.332 -234.667 186.999 -312c52.667 -27.333 106.334 -41 161.001 -41h15c106 0 198.333 49.333 277 148c42.667 64.667 64 128.667 64 192v16c0 122 -58 221.667 -174 299c-59.333 32.667 -119 49 -179 49c-112 0 -206.667 -49.333 -284 -148
c-44.667 -66 -67 -133.667 -67 -203zM334.999 1588l150 178l300 -252l-150 -178z" />
    <glyph glyph-name="aacute" unicode="&#xe1;" 
d="M636 1170c125.333 0 241.333 -38.333 348 -115h3v115h233v-1170h-233v115c-108.667 -76.667 -219.667 -115 -333 -115h-31c-175.333 0 -327 76.667 -455 230c-78.667 110.667 -118 228.667 -118 354c0 194 83.667 354.333 251 481c103.333 70 215 105 335 105zM283 586
c0 -130.667 62.332 -234.667 186.999 -312c52.667 -27.333 106.334 -41 161.001 -41h15c106 0 198.333 49.333 277 148c42.667 64.667 64 128.667 64 192v16c0 122 -58 221.667 -174 299c-59.333 32.667 -119 49 -179 49c-112 0 -206.667 -49.333 -284 -148
c-44.667 -66 -67 -133.667 -67 -203zM634.999 1327l-150 178l300 252l150 -178z" />
    <glyph glyph-name="acircumflex" unicode="&#xe2;" 
d="M636 1170c125.333 0 241.333 -38.333 348 -115h3v115h233v-1170h-233v115c-108.667 -76.667 -219.667 -115 -333 -115h-31c-175.333 0 -327 76.667 -455 230c-78.667 110.667 -118 228.667 -118 354c0 194 83.667 354.333 251 481c103.333 70 215 105 335 105zM283 586
c0 -130.667 62.332 -234.667 186.999 -312c52.667 -27.333 106.334 -41 161.001 -41h15c106 0 198.333 49.333 277 148c42.667 64.667 64 128.667 64 192v16c0 122 -58 221.667 -174 299c-59.333 32.667 -119 49 -179 49c-112 0 -206.667 -49.333 -284 -148
c-44.667 -66 -67 -133.667 -67 -203zM633.999 1754l417 -279c-84 -128 -127.667 -192 -131 -192l-284 189l-289 -189l-128 194c4 0 142.333 92.333 415 277z" />
    <glyph glyph-name="atilde" unicode="&#xe3;" 
d="M636 1170c125.333 0 241.333 -38.333 348 -115h3v115h233v-1170h-233v115c-108.667 -76.667 -219.667 -115 -333 -115h-31c-175.333 0 -327 76.667 -455 230c-78.667 110.667 -118 228.667 -118 354c0 194 83.667 354.333 251 481c103.333 70 215 105 335 105zM283 586
c0 -130.667 62.332 -234.667 186.999 -312c52.667 -27.333 106.334 -41 161.001 -41h15c106 0 198.333 49.333 277 148c42.667 64.667 64 128.667 64 192v16c0 122 -58 221.667 -174 299c-59.333 32.667 -119 49 -179 49c-112 0 -206.667 -49.333 -284 -148
c-44.667 -66 -67 -133.667 -67 -203zM493.999 1640c88.667 0 174 -46 256 -138c8.66699 -5.33301 17 -8 25 -8h13c15.333 0 23 15.333 23 46v69h233v-74c0 -92.667 -33.333 -167 -100 -223c-46.667 -34 -96 -51 -148 -51h-28c-77.333 0 -149 35 -215 105
c-23.333 27.333 -46.333 41 -69 41c-17.333 0 -26 -13.667 -26 -41v-105h-233v115c0 98.667 42.667 175.667 128 231c38 22 85 33 141 33z" />
    <glyph glyph-name="adieresis" unicode="&#xe4;" 
d="M636 1170c125.333 0 241.333 -38.333 348 -115h3v115h233v-1170h-233v115c-108.667 -76.667 -219.667 -115 -333 -115h-31c-175.333 0 -327 76.667 -455 230c-78.667 110.667 -118 228.667 -118 354c0 194 83.667 354.333 251 481c103.333 70 215 105 335 105zM283 586
c0 -130.667 62.332 -234.667 186.999 -312c52.667 -27.333 106.334 -41 161.001 -41h15c106 0 198.333 49.333 277 148c42.667 64.667 64 128.667 64 192v16c0 122 -58 221.667 -174 299c-59.333 32.667 -119 49 -179 49c-112 0 -206.667 -49.333 -284 -148
c-44.667 -66 -67 -133.667 -67 -203zM467.999 1511c49.333 0 84.333 -28.999 105 -86.999l3 -23v-10c0 -52.667 -30.667 -89.334 -92 -110.001l-23 -3c-56.667 0 -95 30.667 -115 92l-3 26c0 60.667 33.333 99 100 115h25zM800.999 1511h21.001c47.333 0 81.333 -29 102 -87
l3 -20v-16c0 -51.333 -30.667 -87 -92 -107l-26 -3c-52.667 0 -90.334 30.667 -113.001 92l-2 26c0 53.333 29 91 87 113z" />
    <glyph glyph-name="aring" unicode="&#xe5;" 
d="M636 1170c125.333 0 241.333 -38.333 348 -115h3v115h233v-1170h-233v115c-108.667 -76.667 -219.667 -115 -333 -115h-31c-175.333 0 -327 76.667 -455 230c-78.667 110.667 -118 228.667 -118 354c0 194 83.667 354.333 251 481c103.333 70 215 105 335 105zM283 586
c0 -130.667 62.332 -234.667 186.999 -312c52.667 -27.333 106.334 -41 161.001 -41h15c106 0 198.333 49.333 277 148c42.667 64.667 64 128.667 64 192v16c0 122 -58 221.667 -174 299c-59.333 32.667 -119 49 -179 49c-112 0 -206.667 -49.333 -284 -148
c-44.667 -66 -67 -133.667 -67 -203zM634.999 1751c150 0 269.332 -69.333 357.999 -208c34 -66 51 -130.667 51 -194v-16c0 -126.667 -55.333 -234 -166 -322c-73.333 -52.667 -155.333 -79 -246 -79c-127.333 0 -235.666 54.333 -324.999 163
c-54.667 77.333 -82 159.333 -82 246c0 130.667 54.667 240 164 328c72.667 54.667 154.667 82 246 82zM457.998 1341c0 -71.333 37.667 -126 113 -164c26 -8.66699 48 -13 66 -13c65.333 0 117.333 33.333 156 100c12 26.667 18 50.667 18 72v10c0 68 -36.667 121 -110 159
c-24 8.66699 -46 13 -66 13c-78.667 0 -135 -42.667 -169 -128z" />
    <glyph glyph-name="ae" unicode="&#xe6;" horiz-adv-x="2177" 
d="M636 1170c125.333 0 241.333 -38.333 348 -115h3v115h233v-1170h-233v115c-108.667 -76.667 -219.667 -115 -333 -115h-31c-175.333 0 -327 76.667 -455 230c-78.667 110.667 -118 228.667 -118 354c0 194 83.667 354.333 251 481c103.333 70 215 105 335 105zM283 586
c0 -130.667 62.332 -234.667 186.999 -312c52.667 -27.333 106.334 -41 161.001 -41h15c106 0 198.333 49.333 277 148c42.667 64.667 64 128.667 64 192v16c0 122 -58 221.667 -174 299c-59.333 32.667 -119 49 -179 49c-112 0 -206.667 -49.333 -284 -148
c-44.667 -66 -67 -133.667 -67 -203zM1556 1170c172 0 320.332 -68.999 444.999 -206.999c92 -116 138 -241.667 138 -377c-1.33301 -44 -5.33301 -83 -12 -117h-904c28.667 -86 86 -152 172 -198c50.667 -25.333 103.334 -38 158.001 -38c92 0 175 34 249 102l163 -163v-3
c-118 -112.667 -254.333 -169 -409 -169h-5c-174 0 -322.667 69 -446 207c-92 115.333 -138 241 -138 377c0 173.333 69 322.666 207 447.999c112 92 239.333 138 382 138zM1223 701.001h660c-26 78 -78.667 142 -158 192c-59.333 29.333 -117.333 44 -174 44
c-124 0 -225.667 -59.667 -305 -179z" />
    <glyph glyph-name="ccedilla" unicode="&#xe7;" horiz-adv-x="1168" 
d="M639 1170c187.333 0 345.001 -81 473.001 -243l6 -10c-122.667 -92.667 -186 -139 -190 -139c-74 106 -173 159 -297 159c-118 0 -217 -56.333 -297 -169c-34 -62.667 -51 -124 -51 -184c0 -126 60.667 -228.333 182 -307c56.667 -29.333 113.667 -44 171 -44
c118 0 216.333 53 295 159l187 -139c-11.333 -24 -49 -64.667 -113 -122c-110 -87.333 -231.333 -131 -364 -131h-7c-183.333 0 -338 76 -464 228c-80 110 -120 229.333 -120 358c0 164.667 64 309 192 433c115.333 100.667 247.666 151 396.999 151zM714.001 -114
l5 -0.000976562c153.333 -58.667 230 -168.667 230 -330c0 -51.333 -10 -101.666 -30 -150.999c-65.333 -132.667 -179 -199 -341 -199h-97v232h100c90.667 0 136 39.333 136 118c0 36 -11.333 66 -34 90c-31.333 18.667 -61 28 -89 28h-113v468h233v-256z" />
    <glyph glyph-name="egrave" unicode="&#xe8;" horiz-adv-x="1272" 
d="M639 1170c172 0 320.332 -68.999 444.999 -206.999c92 -116 138 -241.667 138 -377c-1.33301 -44 -5.33301 -83 -12 -117h-904c28.667 -86 86 -152 172 -198c50.667 -25.333 103.334 -38 158.001 -38c92 0 175 34 249 102l163 -163v-3
c-118 -112.667 -254.333 -169 -409 -169h-5c-174 0 -322.667 69 -446 207c-92 115.333 -138 241 -138 377c0 173.333 69 322.666 207 447.999c112 92 239.333 138 382 138zM305.999 701.001h660c-26 78 -78.667 142 -158 192c-59.333 29.333 -117.333 44 -174 44
c-124 0 -225.667 -59.667 -305 -179zM335.999 1588l150 178l300 -252l-150 -178z" />
    <glyph glyph-name="eacute" unicode="&#xe9;" horiz-adv-x="1272" 
d="M639 1170c172 0 320.332 -68.999 444.999 -206.999c92 -116 138 -241.667 138 -377c-1.33301 -44 -5.33301 -83 -12 -117h-904c28.667 -86 86 -152 172 -198c50.667 -25.333 103.334 -38 158.001 -38c92 0 175 34 249 102l163 -163v-3
c-118 -112.667 -254.333 -169 -409 -169h-5c-174 0 -322.667 69 -446 207c-92 115.333 -138 241 -138 377c0 173.333 69 322.666 207 447.999c112 92 239.333 138 382 138zM305.999 701.001h660c-26 78 -78.667 142 -158 192c-59.333 29.333 -117.333 44 -174 44
c-124 0 -225.667 -59.667 -305 -179zM635.999 1327l-150 178l300 252l150 -178z" />
    <glyph glyph-name="ecircumflex" unicode="&#xea;" horiz-adv-x="1272" 
d="M639 1170c172 0 320.332 -68.999 444.999 -206.999c92 -116 138 -241.667 138 -377c-1.33301 -44 -5.33301 -83 -12 -117h-904c28.667 -86 86 -152 172 -198c50.667 -25.333 103.334 -38 158.001 -38c92 0 175 34 249 102l163 -163v-3
c-118 -112.667 -254.333 -169 -409 -169h-5c-174 0 -322.667 69 -446 207c-92 115.333 -138 241 -138 377c0 173.333 69 322.666 207 447.999c112 92 239.333 138 382 138zM305.999 701.001h660c-26 78 -78.667 142 -158 192c-59.333 29.333 -117.333 44 -174 44
c-124 0 -225.667 -59.667 -305 -179zM634.999 1754l417 -279c-84 -128 -127.667 -192 -131 -192l-284 189l-289 -189l-128 194c4 0 142.333 92.333 415 277z" />
    <glyph glyph-name="edieresis" unicode="&#xeb;" horiz-adv-x="1272" 
d="M639 1170c172 0 320.332 -68.999 444.999 -206.999c92 -116 138 -241.667 138 -377c-1.33301 -44 -5.33301 -83 -12 -117h-904c28.667 -86 86 -152 172 -198c50.667 -25.333 103.334 -38 158.001 -38c92 0 175 34 249 102l163 -163v-3
c-118 -112.667 -254.333 -169 -409 -169h-5c-174 0 -322.667 69 -446 207c-92 115.333 -138 241 -138 377c0 173.333 69 322.666 207 447.999c112 92 239.333 138 382 138zM305.999 701.001h660c-26 78 -78.667 142 -158 192c-59.333 29.333 -117.333 44 -174 44
c-124 0 -225.667 -59.667 -305 -179zM468.999 1511c49.333 0 84.333 -28.999 105 -86.999l3 -23v-10c0 -52.667 -30.667 -89.334 -92 -110.001l-23 -3c-56.667 0 -95 30.667 -115 92l-3 26c0 60.667 33.333 99 100 115h25zM801.999 1511h21.001c47.333 0 81.333 -29 102 -87
l3 -20v-16c0 -51.333 -30.667 -87 -92 -107l-26 -3c-52.667 0 -90.334 30.667 -113.001 92l-2 26c0 53.333 29 91 87 113z" />
    <glyph glyph-name="igrave" unicode="&#xec;" horiz-adv-x="100" 
d="M-300 1588l150 178l300 -252l-150 -178z" />
    <glyph glyph-name="iacute" unicode="&#xed;" horiz-adv-x="100" 
d="M0 1327l-150 178l300 252l150 -178z" />
    <glyph glyph-name="icircumflex" unicode="&#xee;" horiz-adv-x="100" 
d="M-1 1754l417 -279c-84 -128 -127.667 -192 -131 -192l-284 189l-289 -189l-128 194c4 0 142.333 92.333 415 277z" />
    <glyph glyph-name="idieresis" unicode="&#xef;" horiz-adv-x="100" 
d="M-167 1511c49.333 0 84.333 -28.999 105 -86.999l3 -23v-10c0 -52.667 -30.667 -89.334 -92 -110.001l-23 -3c-56.667 0 -95 30.667 -115 92l-3 26c0 60.667 33.333 99 100 115h25zM166 1511h21.001c47.333 0 81.333 -29 102 -87l3 -20v-16
c0 -51.333 -30.667 -87 -92 -107l-26 -3c-52.667 0 -90.334 30.667 -113.001 92l-2 26c0 53.333 29 91 87 113z" />
    <glyph glyph-name="eth" unicode="&#xf0;" horiz-adv-x="100" 
 />
    <glyph glyph-name="ntilde" unicode="&#xf1;" 
d="M50 1170h233.001v-102h3c98 68 214 102 348 102c260 0 440.667 -117 542 -351c29.333 -76.667 44 -151.667 44 -225v-594h-233v586c0 94 -30 177 -90 249c-62.667 68 -150.334 102 -263.001 102c-160 0 -267.667 -69 -323 -207c-18.667 -48.667 -28 -99 -28 -151v-579
h-233v1170zM494.001 1650c88.667 0 174 -46 256 -138c8.66699 -5.33301 17 -8 25 -8h13c15.333 0 23 15.333 23 46v69h233v-74c0 -92.667 -33.333 -167 -100 -223c-46.667 -34 -96 -51 -148 -51h-28c-77.333 0 -149 35 -215 105c-23.333 27.333 -46.333 41 -69 41
c-17.333 0 -26 -13.667 -26 -41v-105h-233v115c0 98.667 42.667 175.667 128 231c38 22 85 33 141 33z" />
    <glyph glyph-name="ograve" unicode="&#xf2;" horiz-adv-x="1272" 
d="M641 1170c153.333 0 290 -57.333 410 -172c114 -120.667 171 -258.667 171 -414c0 -162.667 -63 -306 -189 -430c-116 -102.667 -247.333 -154 -394 -154h-5c-174 0 -322.667 69 -446 207c-92 115.333 -138 241 -138 377c0 118 35 229.667 105 335
c125.333 167.333 287.333 251 486 251zM286 604l-0.00195312 -14.999l-3 -3l3 -2v-16c0 -94.667 45 -182.334 135 -263.001c68.667 -48 140.334 -72 215.001 -72c115.333 0 211 49.333 287 148c44.667 66 67 133.667 67 203c0 121.333 -56.333 222 -169 302
c-61.333 34 -124.666 51 -189.999 51c-116.667 0 -214 -54.667 -292 -164c-35.333 -60 -53 -116.333 -53 -169zM335.998 1527l150 178l300 -252l-150 -178z" />
    <glyph glyph-name="oacute" unicode="&#xf3;" horiz-adv-x="1272" 
d="M641 1170c153.333 0 290 -57.333 410 -172c114 -120.667 171 -258.667 171 -414c0 -162.667 -63 -306 -189 -430c-116 -102.667 -247.333 -154 -394 -154h-5c-174 0 -322.667 69 -446 207c-92 115.333 -138 241 -138 377c0 118 35 229.667 105 335
c125.333 167.333 287.333 251 486 251zM286 604l-0.00195312 -14.999l-3 -3l3 -2v-16c0 -94.667 45 -182.334 135 -263.001c68.667 -48 140.334 -72 215.001 -72c115.333 0 211 49.333 287 148c44.667 66 67 133.667 67 203c0 121.333 -56.333 222 -169 302
c-61.333 34 -124.666 51 -189.999 51c-116.667 0 -214 -54.667 -292 -164c-35.333 -60 -53 -116.333 -53 -169zM635.998 1284l-150 178l300 252l150 -178z" />
    <glyph glyph-name="ocircumflex" unicode="&#xf4;" horiz-adv-x="1272" 
d="M641 1170c153.333 0 290 -57.333 410 -172c114 -120.667 171 -258.667 171 -414c0 -162.667 -63 -306 -189 -430c-116 -102.667 -247.333 -154 -394 -154h-5c-174 0 -322.667 69 -446 207c-92 115.333 -138 241 -138 377c0 118 35 229.667 105 335
c125.333 167.333 287.333 251 486 251zM286 604l-0.00195312 -14.999l-3 -3l3 -2v-16c0 -94.667 45 -182.334 135 -263.001c68.667 -48 140.334 -72 215.001 -72c115.333 0 211 49.333 287 148c44.667 66 67 133.667 67 203c0 121.333 -56.333 222 -169 302
c-61.333 34 -124.666 51 -189.999 51c-116.667 0 -214 -54.667 -292 -164c-35.333 -60 -53 -116.333 -53 -169zM634.998 1684l417 -279c-84 -128 -127.667 -192 -131 -192l-284 189l-289 -189l-128 194c4 0 142.333 92.333 415 277z" />
    <glyph glyph-name="otilde" unicode="&#xf5;" horiz-adv-x="1272" 
d="M641 1170c153.333 0 290 -57.333 410 -172c114 -120.667 171 -258.667 171 -414c0 -162.667 -63 -306 -189 -430c-116 -102.667 -247.333 -154 -394 -154h-5c-174 0 -322.667 69 -446 207c-92 115.333 -138 241 -138 377c0 118 35 229.667 105 335
c125.333 167.333 287.333 251 486 251zM286 604l-0.00195312 -14.999l-3 -3l3 -2v-16c0 -94.667 45 -182.334 135 -263.001c68.667 -48 140.334 -72 215.001 -72c115.333 0 211 49.333 287 148c44.667 66 67 133.667 67 203c0 121.333 -56.333 222 -169 302
c-61.333 34 -124.666 51 -189.999 51c-116.667 0 -214 -54.667 -292 -164c-35.333 -60 -53 -116.333 -53 -169zM494.998 1640c88.667 0 174 -46 256 -138c8.66699 -5.33301 17 -8 25 -8h13c15.333 0 23 15.333 23 46v69h233v-74c0 -92.667 -33.333 -167 -100 -223
c-46.667 -34 -96 -51 -148 -51h-28c-77.333 0 -149 35 -215 105c-23.333 27.333 -46.333 41 -69 41c-17.333 0 -26 -13.667 -26 -41v-105h-233v115c0 98.667 42.667 175.667 128 231c38 22 85 33 141 33z" />
    <glyph glyph-name="odieresis" unicode="&#xf6;" horiz-adv-x="1272" 
d="M641 1170c153.333 0 290 -57.333 410 -172c114 -120.667 171 -258.667 171 -414c0 -162.667 -63 -306 -189 -430c-116 -102.667 -247.333 -154 -394 -154h-5c-174 0 -322.667 69 -446 207c-92 115.333 -138 241 -138 377c0 118 35 229.667 105 335
c125.333 167.333 287.333 251 486 251zM286 604l-0.00195312 -14.999l-3 -3l3 -2v-16c0 -94.667 45 -182.334 135 -263.001c68.667 -48 140.334 -72 215.001 -72c115.333 0 211 49.333 287 148c44.667 66 67 133.667 67 203c0 121.333 -56.333 222 -169 302
c-61.333 34 -124.666 51 -189.999 51c-116.667 0 -214 -54.667 -292 -164c-35.333 -60 -53 -116.333 -53 -169zM468.998 1511c49.333 0 84.333 -28.999 105 -86.999l3 -23v-10c0 -52.667 -30.667 -89.334 -92 -110.001l-23 -3c-56.667 0 -95 30.667 -115 92l-3 26
c0 60.667 33.333 99 100 115h25zM801.998 1511h21.001c47.333 0 81.333 -29 102 -87l3 -20v-16c0 -51.333 -30.667 -87 -92 -107l-26 -3c-52.667 0 -90.334 30.667 -113.001 92l-2 26c0 53.333 29 91 87 113z" />
    <glyph glyph-name="divide" unicode="&#xf7;" horiz-adv-x="100" 
 />
    <glyph glyph-name="oslash" unicode="&#xf8;" horiz-adv-x="1272" 
d="M641 1170c153.333 0 290 -57.333 410 -172c114 -120.667 171 -258.667 171 -414c0 -162.667 -63 -306 -189 -430c-116 -102.667 -247.333 -154 -394 -154h-5c-174 0 -322.667 69 -446 207c-92 115.333 -138 241 -138 377c0 118 35 229.667 105 335
c125.333 167.333 287.333 251 486 251zM286 604l-0.00195312 -14.999l-3 -3l3 -2v-16c0 -94.667 45 -182.334 135 -263.001c68.667 -48 140.334 -72 215.001 -72c115.333 0 211 49.333 287 148c44.667 66 67 133.667 67 203c0 121.333 -56.333 222 -169 302
c-61.333 34 -124.666 51 -189.999 51c-116.667 0 -214 -54.667 -292 -164c-35.333 -60 -53 -116.333 -53 -169zM347.998 -19.999l498 1858l216 -58l-498 -1858z" />
    <glyph glyph-name="ugrave" unicode="&#xf9;" horiz-adv-x="1272" 
d="M50 1170h233v-410c1.33301 -253.333 71.333 -419.666 210 -498.999c44.667 -18.667 86.334 -28 125.001 -28h16c82 0 161.333 35 238 105c51.333 57.333 84.666 124 99.999 200c12 43.333 18 123.333 18 240v392h232v-376c0 -196 -17.667 -333.667 -53 -413
c-21.333 -54.667 -51.333 -108.334 -90 -161.001c-73.333 -96 -178.333 -163.333 -315 -202c-40.667 -12 -80 -18 -118 -18h-40c-112 0 -218.667 40 -320 120c-157.333 138 -236 355.667 -236 653v397zM336 1536l150 178l300 -252l-150 -178z" />
    <glyph glyph-name="uacute" unicode="&#xfa;" horiz-adv-x="1272" 
d="M50 1170h233v-410c1.33301 -253.333 71.333 -419.666 210 -498.999c44.667 -18.667 86.334 -28 125.001 -28h16c82 0 161.333 35 238 105c51.333 57.333 84.666 124 99.999 200c12 43.333 18 123.333 18 240v392h232v-376c0 -196 -17.667 -333.667 -53 -413
c-21.333 -54.667 -51.333 -108.334 -90 -161.001c-73.333 -96 -178.333 -163.333 -315 -202c-40.667 -12 -80 -18 -118 -18h-40c-112 0 -218.667 40 -320 120c-157.333 138 -236 355.667 -236 653v397zM636 1247l-150 178l300 252l150 -178z" />
    <glyph glyph-name="ucircumflex" unicode="&#xfb;" horiz-adv-x="1272" 
d="M50 1170h233v-410c1.33301 -253.333 71.333 -419.666 210 -498.999c44.667 -18.667 86.334 -28 125.001 -28h16c82 0 161.333 35 238 105c51.333 57.333 84.666 124 99.999 200c12 43.333 18 123.333 18 240v392h232v-376c0 -196 -17.667 -333.667 -53 -413
c-21.333 -54.667 -51.333 -108.334 -90 -161.001c-73.333 -96 -178.333 -163.333 -315 -202c-40.667 -12 -80 -18 -118 -18h-40c-112 0 -218.667 40 -320 120c-157.333 138 -236 355.667 -236 653v397zM635 1714l417 -279c-84 -128 -127.667 -192 -131 -192l-284 189
l-289 -189l-128 194c4 0 142.333 92.333 415 277z" />
    <glyph glyph-name="udieresis" unicode="&#xfc;" horiz-adv-x="1272" 
d="M50 1170h233v-410c1.33301 -253.333 71.333 -419.666 210 -498.999c44.667 -18.667 86.334 -28 125.001 -28h16c82 0 161.333 35 238 105c51.333 57.333 84.666 124 99.999 200c12 43.333 18 123.333 18 240v392h232v-376c0 -196 -17.667 -333.667 -53 -413
c-21.333 -54.667 -51.333 -108.334 -90 -161.001c-73.333 -96 -178.333 -163.333 -315 -202c-40.667 -12 -80 -18 -118 -18h-40c-112 0 -218.667 40 -320 120c-157.333 138 -236 355.667 -236 653v397zM469 1501c49.333 0 84.333 -28.999 105 -86.999l3 -23v-10
c0 -52.667 -30.667 -89.334 -92 -110.001l-23 -3c-56.667 0 -95 30.667 -115 92l-3 26c0 60.667 33.333 99 100 115h25zM802 1501h21.001c47.333 0 81.333 -29 102 -87l3 -20v-16c0 -51.333 -30.667 -87 -92 -107l-26 -3c-52.667 0 -90.334 30.667 -113.001 92l-2 26
c0 53.333 29 91 87 113z" />
    <glyph glyph-name="yacute" unicode="&#xfd;" 
d="M50 1170l232.999 0.000976562v-482c0 -174 51.333 -306 154 -396c54 -39.333 121.333 -59 202 -59c158.667 0 264.334 82.667 317.001 248c20.667 65.333 31 122.666 31 171.999v517h233v-1296c0 -128 -44.333 -255 -133 -381c-114.667 -130 -259.667 -195 -435 -195v233
c153.333 0 257.333 73.333 312 220c15.333 55.333 23 100.666 23 135.999v228c-96 -76.667 -213.667 -115 -353 -115c-250.667 0 -426.667 122.667 -528 368c-37.333 98.667 -56 206.334 -56 323.001v479zM634.999 1287l-150 178l300 252l150 -178z" />
    <glyph glyph-name="thorn" unicode="&#xfe;" 
d="M50 1174h232.999v-115h5c108 76.667 223.333 115 346 115c182.667 0 337 -75 463 -225c82 -110.667 123 -225 123 -343v-36c0 -154.667 -65 -294.667 -195 -420c-118 -97.333 -240 -146 -366 -146h-46c-109.333 0 -217.666 37.667 -324.999 113h-5v-817h-233v1874z
M282.999 590c0 -130.667 61.332 -234.668 183.999 -312.001c56.667 -27.333 108 -41 154 -41h31c96.667 0 185.334 46 266.001 138c46 68 69 137.333 69 208v10c0 112.667 -50.333 207.334 -151 284.001c-65.333 42.667 -132 64 -200 64c-112.667 0 -208 -49.333 -286 -148
c-44.667 -66 -67 -133.667 -67 -203zM49.998 1756h233v-1756h-233v1756z" />
    <glyph glyph-name="ydieresis" unicode="&#xff;" 
d="M50 1170l232.999 0.000976562v-482c0 -174 51.333 -306 154 -396c54 -39.333 121.333 -59 202 -59c158.667 0 264.334 82.667 317.001 248c20.667 65.333 31 122.666 31 171.999v517h233v-1296c0 -128 -44.333 -255 -133 -381c-114.667 -130 -259.667 -195 -435 -195v233
c153.333 0 257.333 73.333 312 220c15.333 55.333 23 100.666 23 135.999v228c-96 -76.667 -213.667 -115 -353 -115c-250.667 0 -426.667 122.667 -528 368c-37.333 98.667 -56 206.334 -56 323.001v479zM467.999 1511c49.333 0 84.333 -28.999 105 -86.999l3 -23v-10
c0 -52.667 -30.667 -89.334 -92 -110.001l-23 -3c-56.667 0 -95 30.667 -115 92l-3 26c0 60.667 33.333 99 100 115h25zM800.999 1511h21.001c47.333 0 81.333 -29 102 -87l3 -20v-16c0 -51.333 -30.667 -87 -92 -107l-26 -3c-52.667 0 -90.334 30.667 -113.001 92l-2 26
c0 53.333 29 91 87 113z" />
    <glyph glyph-name="dotlessi" unicode="&#x131;" horiz-adv-x="100" 
 />
    <glyph glyph-name="circumflex" unicode="&#x2c6;" horiz-adv-x="904" 
d="M447 1754l417 -279c-84 -128 -127.667 -192 -131 -192l-284 189l-289 -189l-128 194c4 0 142.333 92.333 415 277z" />
    <glyph glyph-name="caron" unicode="&#x2c7;" horiz-adv-x="904" 
d="M449 1272l-417 279c84 127.333 127.667 191.333 131 192l284 -190l289 190l128 -195c-4 0 -142.333 -92 -415 -276z" />
    <glyph glyph-name="uni02C9" unicode="&#x2c9;" horiz-adv-x="835" 
d="M85 1606h660v-224h-660v224z" />
    <glyph glyph-name="breve" unicode="&#x2d8;" horiz-adv-x="975" 
d="M65 1728h233.001c0 -71.333 37.667 -126 113 -164c27.333 -8.66699 48.666 -13 63.999 -13c44 0 84.667 17 122 51c36 36.667 54 78.667 54 126h233v-3c0 -130 -54.667 -238.333 -164 -325c-74 -54.667 -155.667 -82 -245 -82c-130 0 -239.333 54.667 -328 164
c-54.667 76.667 -82 158.667 -82 246z" />
    <glyph glyph-name="dotaccent" unicode="&#x2d9;" horiz-adv-x="332" 
d="M176 1488c55.333 0 92.668 -30.667 112.001 -92l3 -26c0 -54 -29 -91.667 -87 -113l-23 -2h-10c-52.667 0 -89.334 29 -110.001 87l-3 23v8c0 53.333 28 90 84 110z" />
    <glyph glyph-name="ring" unicode="&#x2da;" horiz-adv-x="1041" 
d="M507 1751c150 0 269.332 -69.333 357.999 -208c34 -66 51 -130.667 51 -194v-16c0 -126.667 -55.333 -234 -166 -322c-73.333 -52.667 -155.333 -79 -246 -79c-127.333 0 -235.666 54.333 -324.999 163c-54.667 77.333 -82 159.333 -82 246c0 130.667 54.667 240 164 328
c72.667 54.667 154.667 82 246 82zM329.999 1341c0 -71.333 37.667 -126 113 -164c26 -8.66699 48 -13 66 -13c65.333 0 117.333 33.333 156 100c12 26.667 18 50.667 18 72v10c0 68 -36.667 121 -110 159c-24 8.66699 -46 13 -66 13c-78.667 0 -135 -42.667 -169 -128z" />
    <glyph glyph-name="ogonek" unicode="&#x2db;" horiz-adv-x="821" 
d="M386 142l231.999 0.000976562v-468h-112c-28 0 -58 -9.33301 -90 -28c-22 -24 -33 -54 -33 -90c0 -78.667 45.333 -118 136 -118h99v-232h-97c-161.333 0 -274.666 66.333 -339.999 199c-20.667 49.333 -31 99.666 -31 150.999c0 161.333 76.667 271.333 230 330h6v256z
" />
    <glyph glyph-name="tilde" unicode="&#x2dc;" horiz-adv-x="1005" 
d="M344 1640c88.667 0 174 -46 256 -138c8.66699 -5.33301 17 -8 25 -8h13c15.333 0 23 15.333 23 46v69h233v-74c0 -92.667 -33.333 -167 -100 -223c-46.667 -34 -96 -51 -148 -51h-28c-77.333 0 -149 35 -215 105c-23.333 27.333 -46.333 41 -69 41
c-17.333 0 -26 -13.667 -26 -41v-105h-233v115c0 98.667 42.667 175.667 128 231c38 22 85 33 141 33z" />
    <glyph glyph-name=".null" horiz-adv-x="100" 
 />
    <glyph glyph-name="nonmarkingreturn" horiz-adv-x="100" 
 />
    </font>
</defs>
</svg>
